<svg width="44" height="31" viewBox="0 0 44 31" fill="none" xmlns="http://www.w3.org/2000/svg">
<path d="M39.5864 0H3.59877C1.61944 0 0 1.55 0 3.44444V27.5556C0 29.45 1.61944 31 3.59877 31H39.5864C41.5657 31 43.1672 29.45 43.1672 27.5556L43.1852 3.44444C43.1852 1.55 41.5657 0 39.5864 0ZM39.5864 27.5556H3.59877V3.44444H39.5864V27.5556ZM34.2063 25.8161L37.787 22.3889L35.07 18.9444H32.119C31.7231 17.8594 31.4892 16.7056 31.4892 15.5C31.4892 14.2944 31.7231 13.1406 32.119 12.0556H35.07L37.787 8.61111L34.2063 5.18389C31.8187 6.89031 30.0908 9.30738 29.294 12.0556C28.9701 13.1578 28.7901 14.3117 28.7901 15.5C28.7901 16.6883 28.9701 17.8422 29.294 18.9444C30.0955 21.6905 31.8224 24.1062 34.2063 25.8161V25.8161ZM16.1944 15.5C19.1634 15.5 21.5926 13.175 21.5926 10.3333C21.5926 7.49167 19.1634 5.16667 16.1944 5.16667C13.2255 5.16667 10.7963 7.49167 10.7963 10.3333C10.7963 13.175 13.2255 15.5 16.1944 15.5ZM16.1944 8.61111C17.1841 8.61111 17.9938 9.38611 17.9938 10.3333C17.9938 11.2806 17.1841 12.0556 16.1944 12.0556C15.2048 12.0556 14.3951 11.2806 14.3951 10.3333C14.3951 9.38611 15.2048 8.61111 16.1944 8.61111ZM26.9907 23.405C26.9907 19.0994 19.8472 17.2394 16.1944 17.2394C12.5417 17.2394 5.39815 19.0994 5.39815 23.405V25.8333H26.9907V23.405ZM9.86062 22.3889C11.1922 21.5278 13.8552 20.6667 16.1944 20.6667C18.5336 20.6667 21.1787 21.5106 22.5283 22.3889H9.86062Z" fill="black"/>
</svg>
