<svg width="1439" height="195" viewBox="0 0 1439 195" fill="none" xmlns="http://www.w3.org/2000/svg">
<rect width="1440" height="195" fill="white"/>
<path d="M406.313 142.199C405.375 142.199 404.575 142.023 403.913 141.671C403.263 141.319 402.761 140.823 402.409 140.183C402.068 139.543 401.876 138.791 401.833 137.927C401.823 137.457 401.817 136.961 401.817 136.439C401.817 135.905 401.823 135.399 401.833 134.919C401.876 134.055 402.068 133.308 402.409 132.679C402.761 132.049 403.268 131.559 403.929 131.207C404.591 130.855 405.385 130.679 406.313 130.679C407.071 130.679 407.727 130.785 408.281 130.999C408.836 131.212 409.289 131.484 409.641 131.815C410.004 132.135 410.271 132.471 410.441 132.823C410.623 133.175 410.719 133.484 410.729 133.751C410.74 133.847 410.713 133.927 410.649 133.991C410.585 134.044 410.5 134.071 410.393 134.071H409.449C409.343 134.071 409.263 134.049 409.209 134.007C409.167 133.964 409.124 133.889 409.081 133.783C408.985 133.505 408.825 133.233 408.601 132.967C408.388 132.7 408.095 132.481 407.721 132.311C407.359 132.129 406.889 132.039 406.313 132.039C405.471 132.039 404.788 132.268 404.265 132.727C403.753 133.185 403.476 133.943 403.433 134.999C403.401 135.948 403.401 136.897 403.433 137.847C403.476 138.913 403.759 139.681 404.281 140.151C404.804 140.609 405.487 140.839 406.329 140.839C406.895 140.839 407.396 140.737 407.833 140.535C408.281 140.321 408.633 139.996 408.889 139.559C409.145 139.121 409.273 138.567 409.273 137.895V137.223H406.873C406.767 137.223 406.676 137.191 406.601 137.127C406.537 137.052 406.505 136.956 406.505 136.839V136.327C406.505 136.209 406.537 136.119 406.601 136.055C406.676 135.98 406.767 135.943 406.873 135.943H410.489C410.607 135.943 410.697 135.98 410.761 136.055C410.825 136.119 410.857 136.209 410.857 136.327V137.863C410.857 138.737 410.676 139.5 410.313 140.151C409.961 140.801 409.444 141.308 408.761 141.671C408.079 142.023 407.263 142.199 406.313 142.199ZM416.036 142.199C415.353 142.199 414.772 142.049 414.292 141.751C413.823 141.441 413.465 141.015 413.22 140.471C412.975 139.927 412.852 139.303 412.852 138.599V134.087C412.852 133.98 412.884 133.895 412.948 133.831C413.023 133.756 413.113 133.719 413.22 133.719H414.02C414.127 133.719 414.212 133.756 414.276 133.831C414.351 133.895 414.388 133.98 414.388 134.087V138.519C414.388 140.108 415.081 140.903 416.468 140.903C417.129 140.903 417.657 140.695 418.052 140.279C418.457 139.852 418.66 139.265 418.66 138.519V134.087C418.66 133.98 418.692 133.895 418.756 133.831C418.831 133.756 418.921 133.719 419.028 133.719H419.812C419.929 133.719 420.02 133.756 420.084 133.831C420.148 133.895 420.18 133.98 420.18 134.087V141.671C420.18 141.777 420.148 141.868 420.084 141.943C420.02 142.007 419.929 142.039 419.812 142.039H419.076C418.969 142.039 418.879 142.007 418.804 141.943C418.74 141.868 418.708 141.777 418.708 141.671V140.967C418.42 141.34 418.068 141.639 417.652 141.863C417.247 142.087 416.708 142.199 416.036 142.199ZM422.925 142.039C422.818 142.039 422.728 142.007 422.653 141.943C422.589 141.868 422.557 141.777 422.557 141.671V134.087C422.557 133.98 422.589 133.895 422.653 133.831C422.728 133.756 422.818 133.719 422.925 133.719H423.693C423.8 133.719 423.885 133.756 423.949 133.831C424.013 133.895 424.045 133.98 424.045 134.087V141.671C424.045 141.777 424.013 141.868 423.949 141.943C423.885 142.007 423.8 142.039 423.693 142.039H422.925ZM422.797 132.167C422.69 132.167 422.6 132.135 422.525 132.071C422.461 131.996 422.429 131.905 422.429 131.799V130.935C422.429 130.828 422.461 130.743 422.525 130.679C422.6 130.604 422.69 130.567 422.797 130.567H423.805C423.912 130.567 423.997 130.604 424.061 130.679C424.136 130.743 424.173 130.828 424.173 130.935V131.799C424.173 131.905 424.136 131.996 424.061 132.071C423.997 132.135 423.912 132.167 423.805 132.167H422.797ZM429.472 142.199C428.885 142.199 428.379 142.097 427.952 141.895C427.525 141.681 427.173 141.399 426.896 141.047C426.629 140.684 426.427 140.273 426.288 139.815C426.16 139.356 426.085 138.871 426.064 138.359C426.053 138.188 426.048 138.028 426.048 137.879C426.048 137.729 426.053 137.569 426.064 137.399C426.085 136.897 426.16 136.417 426.288 135.959C426.427 135.5 426.629 135.089 426.896 134.727C427.173 134.364 427.525 134.081 427.952 133.879C428.379 133.665 428.885 133.559 429.472 133.559C430.101 133.559 430.624 133.671 431.04 133.895C431.456 134.119 431.797 134.396 432.064 134.727V131.047C432.064 130.94 432.096 130.855 432.16 130.791C432.235 130.716 432.325 130.679 432.432 130.679H433.2C433.307 130.679 433.392 130.716 433.456 130.791C433.531 130.855 433.568 130.94 433.568 131.047V141.671C433.568 141.777 433.531 141.868 433.456 141.943C433.392 142.007 433.307 142.039 433.2 142.039H432.48C432.363 142.039 432.272 142.007 432.208 141.943C432.144 141.868 432.112 141.777 432.112 141.671V140.999C431.845 141.34 431.499 141.628 431.072 141.863C430.645 142.087 430.112 142.199 429.472 142.199ZM429.808 140.903C430.341 140.903 430.768 140.78 431.088 140.535C431.408 140.289 431.648 139.98 431.808 139.607C431.968 139.223 432.053 138.833 432.064 138.439C432.075 138.268 432.08 138.065 432.08 137.831C432.08 137.585 432.075 137.377 432.064 137.207C432.053 136.833 431.963 136.465 431.792 136.103C431.632 135.74 431.387 135.441 431.056 135.207C430.736 134.972 430.32 134.855 429.808 134.855C429.264 134.855 428.832 134.977 428.512 135.223C428.192 135.457 427.963 135.772 427.824 136.167C427.685 136.551 427.605 136.967 427.584 137.415C427.573 137.724 427.573 138.033 427.584 138.343C427.605 138.791 427.685 139.212 427.824 139.607C427.963 139.991 428.192 140.305 428.512 140.551C428.832 140.785 429.264 140.903 429.808 140.903ZM439.26 142.199C438.161 142.199 437.286 141.863 436.636 141.191C435.985 140.508 435.628 139.58 435.564 138.407C435.553 138.268 435.548 138.092 435.548 137.879C435.548 137.655 435.553 137.473 435.564 137.335C435.606 136.577 435.782 135.916 436.092 135.351C436.401 134.775 436.822 134.332 437.356 134.023C437.9 133.713 438.534 133.559 439.26 133.559C440.07 133.559 440.748 133.729 441.292 134.071C441.846 134.412 442.268 134.897 442.556 135.527C442.844 136.156 442.988 136.892 442.988 137.735V138.007C442.988 138.124 442.95 138.215 442.876 138.279C442.812 138.343 442.726 138.375 442.62 138.375H437.084C437.084 138.385 437.084 138.407 437.084 138.439C437.084 138.471 437.084 138.497 437.084 138.519C437.105 138.956 437.201 139.367 437.372 139.751C437.542 140.124 437.788 140.428 438.108 140.663C438.428 140.897 438.812 141.015 439.26 141.015C439.644 141.015 439.964 140.956 440.22 140.839C440.476 140.721 440.684 140.593 440.844 140.455C441.004 140.305 441.11 140.193 441.164 140.119C441.26 139.98 441.334 139.9 441.388 139.879C441.441 139.847 441.526 139.831 441.644 139.831H442.412C442.518 139.831 442.604 139.863 442.668 139.927C442.742 139.98 442.774 140.06 442.764 140.167C442.753 140.327 442.668 140.524 442.508 140.759C442.348 140.983 442.118 141.207 441.82 141.431C441.521 141.655 441.158 141.841 440.732 141.991C440.305 142.129 439.814 142.199 439.26 142.199ZM437.084 137.271H441.468V137.223C441.468 136.743 441.377 136.316 441.196 135.943C441.025 135.569 440.774 135.276 440.444 135.063C440.113 134.839 439.718 134.727 439.26 134.727C438.801 134.727 438.406 134.839 438.076 135.063C437.756 135.276 437.51 135.569 437.34 135.943C437.169 136.316 437.084 136.743 437.084 137.223V137.271ZM447.781 142.199C447.183 142.199 446.671 142.124 446.245 141.975C445.818 141.825 445.471 141.644 445.205 141.431C444.938 141.217 444.735 141.004 444.597 140.791C444.469 140.577 444.399 140.407 444.389 140.279C444.378 140.161 444.415 140.071 444.501 140.007C444.586 139.943 444.671 139.911 444.757 139.911H445.461C445.525 139.911 445.573 139.921 445.605 139.943C445.647 139.953 445.701 139.996 445.765 140.071C445.903 140.22 446.058 140.369 446.229 140.519C446.399 140.668 446.607 140.791 446.853 140.887C447.109 140.983 447.423 141.031 447.797 141.031C448.341 141.031 448.789 140.929 449.141 140.727C449.493 140.513 449.669 140.204 449.669 139.799C449.669 139.532 449.594 139.319 449.445 139.159C449.306 138.999 449.05 138.855 448.677 138.727C448.314 138.599 447.813 138.465 447.173 138.327C446.533 138.177 446.026 137.996 445.653 137.783C445.279 137.559 445.013 137.297 444.853 136.999C444.693 136.689 444.613 136.343 444.613 135.959C444.613 135.564 444.73 135.185 444.965 134.823C445.199 134.449 445.541 134.145 445.989 133.911C446.447 133.676 447.018 133.559 447.701 133.559C448.255 133.559 448.73 133.628 449.125 133.767C449.519 133.905 449.845 134.081 450.101 134.295C450.357 134.497 450.549 134.7 450.677 134.903C450.805 135.105 450.874 135.276 450.885 135.415C450.895 135.521 450.863 135.612 450.789 135.687C450.714 135.751 450.629 135.783 450.533 135.783H449.861C449.786 135.783 449.722 135.767 449.669 135.735C449.626 135.703 449.583 135.665 449.541 135.623C449.434 135.484 449.306 135.345 449.157 135.207C449.018 135.068 448.831 134.956 448.597 134.871C448.373 134.775 448.074 134.727 447.701 134.727C447.167 134.727 446.767 134.839 446.501 135.063C446.234 135.287 446.101 135.569 446.101 135.911C446.101 136.113 446.159 136.295 446.277 136.455C446.394 136.615 446.618 136.759 446.949 136.887C447.279 137.015 447.77 137.153 448.421 137.303C449.125 137.441 449.679 137.628 450.085 137.863C450.49 138.097 450.778 138.369 450.949 138.679C451.119 138.988 451.205 139.345 451.205 139.751C451.205 140.199 451.071 140.609 450.805 140.983C450.549 141.356 450.165 141.655 449.653 141.879C449.151 142.092 448.527 142.199 447.781 142.199Z" fill="#363940"/>
<path d="M405.208 111C405.101 111 405.011 110.968 404.936 110.904C404.872 110.829 404.84 110.739 404.84 110.632V101.224H401.768C401.661 101.224 401.571 101.192 401.496 101.128C401.432 101.053 401.4 100.963 401.4 100.856V100.184C401.4 100.067 401.432 99.976 401.496 99.912C401.571 99.8373 401.661 99.8 401.768 99.8H409.48C409.597 99.8 409.688 99.8373 409.752 99.912C409.827 99.976 409.864 100.067 409.864 100.184V100.856C409.864 100.963 409.827 101.053 409.752 101.128C409.688 101.192 409.597 101.224 409.48 101.224H406.424V110.632C406.424 110.739 406.387 110.829 406.312 110.904C406.248 110.968 406.157 111 406.04 111H405.208ZM413.288 111.16C412.605 111.16 412.024 111.011 411.544 110.712C411.075 110.403 410.717 109.976 410.472 109.432C410.227 108.888 410.104 108.264 410.104 107.56V103.048C410.104 102.941 410.136 102.856 410.2 102.792C410.275 102.717 410.365 102.68 410.472 102.68H411.272C411.379 102.68 411.464 102.717 411.528 102.792C411.603 102.856 411.64 102.941 411.64 103.048V107.48C411.64 109.069 412.333 109.864 413.72 109.864C414.381 109.864 414.909 109.656 415.304 109.24C415.709 108.813 415.912 108.227 415.912 107.48V103.048C415.912 102.941 415.944 102.856 416.008 102.792C416.083 102.717 416.173 102.68 416.28 102.68H417.064C417.181 102.68 417.272 102.717 417.336 102.792C417.4 102.856 417.432 102.941 417.432 103.048V110.632C417.432 110.739 417.4 110.829 417.336 110.904C417.272 110.968 417.181 111 417.064 111H416.328C416.221 111 416.131 110.968 416.056 110.904C415.992 110.829 415.96 110.739 415.96 110.632V109.928C415.672 110.301 415.32 110.6 414.904 110.824C414.499 111.048 413.96 111.16 413.288 111.16ZM423.057 111C422.46 111 421.974 110.888 421.601 110.664C421.228 110.429 420.956 110.104 420.785 109.688C420.614 109.261 420.529 108.76 420.529 108.184V103.96H419.281C419.174 103.96 419.084 103.928 419.009 103.864C418.945 103.789 418.913 103.699 418.913 103.592V103.048C418.913 102.941 418.945 102.856 419.009 102.792C419.084 102.717 419.174 102.68 419.281 102.68H420.529V100.008C420.529 99.9013 420.561 99.816 420.625 99.752C420.7 99.6773 420.79 99.64 420.897 99.64H421.649C421.756 99.64 421.841 99.6773 421.905 99.752C421.98 99.816 422.017 99.9013 422.017 100.008V102.68H424.001C424.108 102.68 424.193 102.717 424.257 102.792C424.332 102.856 424.369 102.941 424.369 103.048V103.592C424.369 103.699 424.332 103.789 424.257 103.864C424.193 103.928 424.108 103.96 424.001 103.96H422.017V108.072C422.017 108.573 422.102 108.968 422.273 109.256C422.444 109.544 422.748 109.688 423.185 109.688H424.161C424.268 109.688 424.353 109.725 424.417 109.8C424.492 109.864 424.529 109.949 424.529 110.056V110.632C424.529 110.739 424.492 110.829 424.417 110.904C424.353 110.968 424.268 111 424.161 111H423.057ZM429.467 111.16C428.656 111.16 427.979 111.005 427.435 110.696C426.891 110.387 426.475 109.96 426.187 109.416C425.899 108.861 425.739 108.232 425.707 107.528C425.696 107.347 425.691 107.117 425.691 106.84C425.691 106.552 425.696 106.323 425.707 106.152C425.739 105.437 425.899 104.808 426.187 104.264C426.486 103.72 426.907 103.293 427.451 102.984C427.995 102.675 428.667 102.52 429.467 102.52C430.267 102.52 430.939 102.675 431.483 102.984C432.027 103.293 432.443 103.72 432.731 104.264C433.03 104.808 433.195 105.437 433.227 106.152C433.238 106.323 433.243 106.552 433.243 106.84C433.243 107.117 433.238 107.347 433.227 107.528C433.195 108.232 433.035 108.861 432.747 109.416C432.459 109.96 432.043 110.387 431.499 110.696C430.955 111.005 430.278 111.16 429.467 111.16ZM429.467 109.928C430.128 109.928 430.656 109.72 431.051 109.304C431.446 108.877 431.659 108.259 431.691 107.448C431.702 107.288 431.707 107.085 431.707 106.84C431.707 106.595 431.702 106.392 431.691 106.232C431.659 105.421 431.446 104.808 431.051 104.392C430.656 103.965 430.128 103.752 429.467 103.752C428.806 103.752 428.272 103.965 427.867 104.392C427.472 104.808 427.264 105.421 427.243 106.232C427.232 106.392 427.227 106.595 427.227 106.84C427.227 107.085 427.232 107.288 427.243 107.448C427.264 108.259 427.472 108.877 427.867 109.304C428.272 109.72 428.806 109.928 429.467 109.928ZM435.615 111C435.508 111 435.417 110.968 435.343 110.904C435.279 110.829 435.247 110.739 435.247 110.632V103.064C435.247 102.957 435.279 102.867 435.343 102.792C435.417 102.717 435.508 102.68 435.615 102.68H436.351C436.457 102.68 436.548 102.717 436.623 102.792C436.697 102.867 436.735 102.957 436.735 103.064V103.768C436.948 103.405 437.241 103.133 437.615 102.952C437.988 102.771 438.436 102.68 438.959 102.68H439.599C439.705 102.68 439.791 102.717 439.855 102.792C439.919 102.856 439.951 102.941 439.951 103.048V103.704C439.951 103.811 439.919 103.896 439.855 103.96C439.791 104.024 439.705 104.056 439.599 104.056H438.639C438.063 104.056 437.609 104.227 437.279 104.568C436.948 104.899 436.783 105.352 436.783 105.928V110.632C436.783 110.739 436.745 110.829 436.671 110.904C436.596 110.968 436.505 111 436.399 111H435.615ZM441.693 111C441.586 111 441.495 110.968 441.421 110.904C441.357 110.829 441.325 110.739 441.325 110.632V103.048C441.325 102.941 441.357 102.856 441.421 102.792C441.495 102.717 441.586 102.68 441.693 102.68H442.461C442.567 102.68 442.653 102.717 442.717 102.792C442.781 102.856 442.813 102.941 442.813 103.048V110.632C442.813 110.739 442.781 110.829 442.717 110.904C442.653 110.968 442.567 111 442.461 111H441.693ZM441.565 101.128C441.458 101.128 441.367 101.096 441.293 101.032C441.229 100.957 441.197 100.867 441.197 100.76V99.896C441.197 99.7893 441.229 99.704 441.293 99.64C441.367 99.5653 441.458 99.528 441.565 99.528H442.573C442.679 99.528 442.765 99.5653 442.829 99.64C442.903 99.704 442.941 99.7893 442.941 99.896V100.76C442.941 100.867 442.903 100.957 442.829 101.032C442.765 101.096 442.679 101.128 442.573 101.128H441.565ZM448.543 111.16C447.444 111.16 446.57 110.824 445.919 110.152C445.268 109.469 444.911 108.541 444.847 107.368C444.836 107.229 444.831 107.053 444.831 106.84C444.831 106.616 444.836 106.435 444.847 106.296C444.89 105.539 445.066 104.877 445.375 104.312C445.684 103.736 446.106 103.293 446.639 102.984C447.183 102.675 447.818 102.52 448.543 102.52C449.354 102.52 450.031 102.691 450.575 103.032C451.13 103.373 451.551 103.859 451.839 104.488C452.127 105.117 452.271 105.853 452.271 106.696V106.968C452.271 107.085 452.234 107.176 452.159 107.24C452.095 107.304 452.01 107.336 451.903 107.336H446.367C446.367 107.347 446.367 107.368 446.367 107.4C446.367 107.432 446.367 107.459 446.367 107.48C446.388 107.917 446.484 108.328 446.655 108.712C446.826 109.085 447.071 109.389 447.391 109.624C447.711 109.859 448.095 109.976 448.543 109.976C448.927 109.976 449.247 109.917 449.503 109.8C449.759 109.683 449.967 109.555 450.127 109.416C450.287 109.267 450.394 109.155 450.447 109.08C450.543 108.941 450.618 108.861 450.671 108.84C450.724 108.808 450.81 108.792 450.927 108.792H451.695C451.802 108.792 451.887 108.824 451.951 108.888C452.026 108.941 452.058 109.021 452.047 109.128C452.036 109.288 451.951 109.485 451.791 109.72C451.631 109.944 451.402 110.168 451.103 110.392C450.804 110.616 450.442 110.803 450.015 110.952C449.588 111.091 449.098 111.16 448.543 111.16ZM446.367 106.232H450.751V106.184C450.751 105.704 450.66 105.277 450.479 104.904C450.308 104.531 450.058 104.237 449.727 104.024C449.396 103.8 449.002 103.688 448.543 103.688C448.084 103.688 447.69 103.8 447.359 104.024C447.039 104.237 446.794 104.531 446.623 104.904C446.452 105.277 446.367 105.704 446.367 106.184V106.232ZM454.568 111C454.461 111 454.371 110.968 454.296 110.904C454.232 110.829 454.2 110.739 454.2 110.632V100.008C454.2 99.9013 454.232 99.816 454.296 99.752C454.371 99.6773 454.461 99.64 454.568 99.64H455.32C455.437 99.64 455.528 99.6773 455.592 99.752C455.656 99.816 455.688 99.9013 455.688 100.008V110.632C455.688 110.739 455.656 110.829 455.592 110.904C455.528 110.968 455.437 111 455.32 111H454.568Z" fill="#363940"/>
<path d="M407.121 70.2186C406.005 70.2186 405.057 70.0266 404.277 69.6426C403.509 69.2466 402.921 68.6886 402.513 67.9686C402.105 67.2366 401.877 66.3606 401.829 65.3406C401.817 64.8486 401.811 64.3206 401.811 63.7566C401.811 63.1926 401.817 62.6526 401.829 62.1366C401.877 61.1286 402.105 60.2586 402.513 59.5266C402.933 58.7946 403.527 58.2366 404.295 57.8526C405.075 57.4566 406.017 57.2586 407.121 57.2586C407.937 57.2586 408.669 57.3666 409.317 57.5826C409.965 57.7986 410.517 58.0986 410.973 58.4826C411.429 58.8546 411.783 59.2926 412.035 59.7966C412.287 60.3006 412.419 60.8466 412.431 61.4346C412.443 61.5426 412.407 61.6326 412.323 61.7046C412.251 61.7766 412.161 61.8126 412.053 61.8126H410.343C410.211 61.8126 410.103 61.7826 410.019 61.7226C409.935 61.6506 409.875 61.5366 409.839 61.3806C409.647 60.5886 409.317 60.0486 408.849 59.7606C408.381 59.4726 407.799 59.3286 407.103 59.3286C406.299 59.3286 405.657 59.5566 405.177 60.0126C404.697 60.4566 404.439 61.1946 404.403 62.2266C404.367 63.2106 404.367 64.2186 404.403 65.2506C404.439 66.2826 404.697 67.0266 405.177 67.4826C405.657 67.9266 406.299 68.1486 407.103 68.1486C407.799 68.1486 408.381 68.0046 408.849 67.7166C409.317 67.4166 409.647 66.8766 409.839 66.0966C409.875 65.9286 409.935 65.8146 410.019 65.7546C410.103 65.6946 410.211 65.6646 410.343 65.6646H412.053C412.161 65.6646 412.251 65.7006 412.323 65.7726C412.407 65.8446 412.443 65.9346 412.431 66.0426C412.419 66.6306 412.287 67.1766 412.035 67.6806C411.783 68.1846 411.429 68.6286 410.973 69.0126C410.517 69.3846 409.965 69.6786 409.317 69.8946C408.669 70.1106 407.937 70.2186 407.121 70.2186ZM418.49 70.2186C417.53 70.2186 416.72 70.0506 416.06 69.7146C415.412 69.3786 414.914 68.9046 414.566 68.2926C414.23 67.6806 414.038 66.9666 413.99 66.1506C413.978 65.9346 413.972 65.6706 413.972 65.3586C413.972 65.0466 413.978 64.7826 413.99 64.5666C414.038 63.7386 414.236 63.0246 414.584 62.4246C414.944 61.8126 415.448 61.3386 416.096 61.0026C416.756 60.6666 417.554 60.4986 418.49 60.4986C419.426 60.4986 420.218 60.6666 420.866 61.0026C421.526 61.3386 422.03 61.8126 422.378 62.4246C422.738 63.0246 422.942 63.7386 422.99 64.5666C423.002 64.7826 423.008 65.0466 423.008 65.3586C423.008 65.6706 423.002 65.9346 422.99 66.1506C422.942 66.9666 422.744 67.6806 422.396 68.2926C422.06 68.9046 421.562 69.3786 420.902 69.7146C420.254 70.0506 419.45 70.2186 418.49 70.2186ZM418.49 68.4366C419.126 68.4366 419.618 68.2386 419.966 67.8426C420.314 67.4346 420.506 66.8406 420.542 66.0606C420.554 65.8806 420.56 65.6466 420.56 65.3586C420.56 65.0706 420.554 64.8366 420.542 64.6566C420.506 63.8886 420.314 63.3006 419.966 62.8926C419.618 62.4846 419.126 62.2806 418.49 62.2806C417.854 62.2806 417.362 62.4846 417.014 62.8926C416.666 63.3006 416.474 63.8886 416.438 64.6566C416.426 64.8366 416.42 65.0706 416.42 65.3586C416.42 65.6466 416.426 65.8806 416.438 66.0606C416.474 66.8406 416.666 67.4346 417.014 67.8426C417.362 68.2386 417.854 68.4366 418.49 68.4366ZM425.434 70.0386C425.314 70.0386 425.212 69.9966 425.128 69.9126C425.044 69.8286 425.002 69.7266 425.002 69.6066V61.1106C425.002 60.9906 425.044 60.8886 425.128 60.8046C425.212 60.7206 425.314 60.6786 425.434 60.6786H426.838C426.958 60.6786 427.06 60.7206 427.144 60.8046C427.228 60.8886 427.27 60.9906 427.27 61.1106V61.7226C427.522 61.3866 427.858 61.1046 428.278 60.8766C428.71 60.6366 429.22 60.5106 429.808 60.4986C431.176 60.4746 432.13 61.0086 432.67 62.1006C432.946 61.6206 433.342 61.2366 433.858 60.9486C434.386 60.6486 434.968 60.4986 435.604 60.4986C436.228 60.4986 436.792 60.6426 437.296 60.9306C437.812 61.2186 438.214 61.6566 438.502 62.2446C438.802 62.8206 438.952 63.5526 438.952 64.4406V69.6066C438.952 69.7266 438.91 69.8286 438.826 69.9126C438.742 69.9966 438.64 70.0386 438.52 70.0386H437.044C436.924 70.0386 436.822 69.9966 436.738 69.9126C436.654 69.8286 436.612 69.7266 436.612 69.6066V64.5846C436.612 64.0446 436.534 63.6186 436.378 63.3066C436.222 62.9826 436.012 62.7546 435.748 62.6226C435.484 62.4906 435.19 62.4246 434.866 62.4246C434.602 62.4246 434.338 62.4906 434.074 62.6226C433.81 62.7546 433.594 62.9826 433.426 63.3066C433.258 63.6186 433.174 64.0446 433.174 64.5846V69.6066C433.174 69.7266 433.132 69.8286 433.048 69.9126C432.964 69.9966 432.862 70.0386 432.742 70.0386H431.266C431.134 70.0386 431.026 69.9966 430.942 69.9126C430.87 69.8286 430.834 69.7266 430.834 69.6066V64.5846C430.834 64.0446 430.75 63.6186 430.582 63.3066C430.414 62.9826 430.198 62.7546 429.934 62.6226C429.67 62.4906 429.388 62.4246 429.088 62.4246C428.812 62.4246 428.542 62.4966 428.278 62.6406C428.014 62.7726 427.798 62.9946 427.63 63.3066C427.462 63.6186 427.378 64.0446 427.378 64.5846V69.6066C427.378 69.7266 427.336 69.8286 427.252 69.9126C427.168 69.9966 427.066 70.0386 426.946 70.0386H425.434ZM441.677 70.0386C441.557 70.0386 441.455 69.9966 441.371 69.9126C441.287 69.8286 441.245 69.7266 441.245 69.6066V61.1106C441.245 60.9906 441.287 60.8886 441.371 60.8046C441.455 60.7206 441.557 60.6786 441.677 60.6786H443.081C443.201 60.6786 443.303 60.7206 443.387 60.8046C443.471 60.8886 443.513 60.9906 443.513 61.1106V61.7226C443.765 61.3866 444.101 61.1046 444.521 60.8766C444.953 60.6366 445.463 60.5106 446.051 60.4986C447.419 60.4746 448.373 61.0086 448.913 62.1006C449.189 61.6206 449.585 61.2366 450.101 60.9486C450.629 60.6486 451.211 60.4986 451.847 60.4986C452.471 60.4986 453.035 60.6426 453.539 60.9306C454.055 61.2186 454.457 61.6566 454.745 62.2446C455.045 62.8206 455.195 63.5526 455.195 64.4406V69.6066C455.195 69.7266 455.153 69.8286 455.069 69.9126C454.985 69.9966 454.883 70.0386 454.763 70.0386H453.287C453.167 70.0386 453.065 69.9966 452.981 69.9126C452.897 69.8286 452.855 69.7266 452.855 69.6066V64.5846C452.855 64.0446 452.777 63.6186 452.621 63.3066C452.465 62.9826 452.255 62.7546 451.991 62.6226C451.727 62.4906 451.433 62.4246 451.109 62.4246C450.845 62.4246 450.581 62.4906 450.317 62.6226C450.053 62.7546 449.837 62.9826 449.669 63.3066C449.501 63.6186 449.417 64.0446 449.417 64.5846V69.6066C449.417 69.7266 449.375 69.8286 449.291 69.9126C449.207 69.9966 449.105 70.0386 448.985 70.0386H447.509C447.377 70.0386 447.269 69.9966 447.185 69.9126C447.113 69.8286 447.077 69.7266 447.077 69.6066V64.5846C447.077 64.0446 446.993 63.6186 446.825 63.3066C446.657 62.9826 446.441 62.7546 446.177 62.6226C445.913 62.4906 445.631 62.4246 445.331 62.4246C445.055 62.4246 444.785 62.4966 444.521 62.6406C444.257 62.7726 444.041 62.9946 443.873 63.3066C443.705 63.6186 443.621 64.0446 443.621 64.5846V69.6066C443.621 69.7266 443.579 69.8286 443.495 69.9126C443.411 69.9966 443.309 70.0386 443.189 70.0386H441.677ZM461.519 70.2186C460.187 70.2186 459.131 69.8346 458.351 69.0666C457.571 68.2986 457.151 67.2066 457.091 65.7906C457.079 65.6706 457.073 65.5206 457.073 65.3406C457.073 65.1486 457.079 64.9986 457.091 64.8906C457.139 63.9906 457.343 63.2106 457.703 62.5506C458.075 61.8906 458.585 61.3866 459.233 61.0386C459.881 60.6786 460.643 60.4986 461.519 60.4986C462.491 60.4986 463.307 60.7026 463.967 61.1106C464.627 61.5066 465.125 62.0646 465.461 62.7846C465.797 63.4926 465.965 64.3146 465.965 65.2506V65.6286C465.965 65.7486 465.923 65.8506 465.839 65.9346C465.755 66.0186 465.647 66.0606 465.515 66.0606H459.539C459.539 66.0606 459.539 66.0786 459.539 66.1146C459.539 66.1506 459.539 66.1806 459.539 66.2046C459.551 66.6246 459.629 67.0146 459.773 67.3746C459.929 67.7226 460.151 68.0046 460.439 68.2206C460.739 68.4366 461.093 68.5446 461.501 68.5446C461.837 68.5446 462.119 68.4966 462.347 68.4006C462.575 68.2926 462.761 68.1726 462.905 68.0406C463.049 67.9086 463.151 67.8006 463.211 67.7166C463.319 67.5726 463.403 67.4886 463.463 67.4646C463.535 67.4286 463.637 67.4106 463.769 67.4106H465.317C465.437 67.4106 465.533 67.4466 465.605 67.5186C465.689 67.5906 465.725 67.6806 465.713 67.7886C465.701 67.9806 465.599 68.2146 465.407 68.4906C465.227 68.7666 464.963 69.0366 464.615 69.3006C464.267 69.5646 463.829 69.7866 463.301 69.9666C462.785 70.1346 462.191 70.2186 461.519 70.2186ZM459.539 64.5486H463.517V64.4946C463.517 64.0266 463.439 63.6186 463.283 63.2706C463.127 62.9226 462.899 62.6466 462.599 62.4426C462.299 62.2386 461.939 62.1366 461.519 62.1366C461.099 62.1366 460.739 62.2386 460.439 62.4426C460.139 62.6466 459.911 62.9226 459.755 63.2706C459.611 63.6186 459.539 64.0266 459.539 64.4946V64.5486ZM468.308 70.0386C468.188 70.0386 468.086 69.9966 468.002 69.9126C467.918 69.8286 467.875 69.7266 467.875 69.6066V61.1106C467.875 60.9906 467.918 60.8886 468.002 60.8046C468.086 60.7206 468.188 60.6786 468.308 60.6786H469.784C469.904 60.6786 470.006 60.7206 470.09 60.8046C470.174 60.8886 470.216 60.9906 470.216 61.1106V61.8486C470.528 61.4646 470.924 61.1466 471.404 60.8946C471.896 60.6306 472.502 60.4986 473.222 60.4986C473.954 60.4986 474.59 60.6666 475.13 61.0026C475.67 61.3266 476.084 61.7886 476.372 62.3886C476.672 62.9886 476.822 63.7086 476.822 64.5486V69.6066C476.822 69.7266 476.78 69.8286 476.696 69.9126C476.612 69.9966 476.51 70.0386 476.39 70.0386H474.806C474.686 70.0386 474.584 69.9966 474.5 69.9126C474.416 69.8286 474.374 69.7266 474.374 69.6066V64.6566C474.374 63.9606 474.2 63.4146 473.852 63.0186C473.516 62.6226 473.024 62.4246 472.376 62.4246C471.752 62.4246 471.254 62.6226 470.882 63.0186C470.51 63.4146 470.324 63.9606 470.324 64.6566V69.6066C470.324 69.7266 470.282 69.8286 470.198 69.9126C470.114 69.9966 470.012 70.0386 469.892 70.0386H468.308ZM483.158 70.2186C482.294 70.2186 481.532 70.0566 480.872 69.7326C480.224 69.4086 479.714 68.9406 479.342 68.3286C478.982 67.7046 478.784 66.9546 478.748 66.0786C478.736 65.8986 478.73 65.6646 478.73 65.3766C478.73 65.0766 478.736 64.8306 478.748 64.6386C478.784 63.7626 478.982 63.0186 479.342 62.4066C479.714 61.7826 480.224 61.3086 480.872 60.9846C481.532 60.6606 482.294 60.4986 483.158 60.4986C483.926 60.4986 484.58 60.6066 485.12 60.8226C485.66 61.0386 486.104 61.3086 486.452 61.6326C486.8 61.9566 487.058 62.2986 487.226 62.6586C487.406 63.0066 487.502 63.3246 487.514 63.6126C487.526 63.7446 487.484 63.8526 487.388 63.9366C487.304 64.0086 487.202 64.0446 487.082 64.0446H485.498C485.378 64.0446 485.282 64.0146 485.21 63.9546C485.15 63.8946 485.09 63.8046 485.03 63.6846C484.85 63.2046 484.61 62.8686 484.31 62.6766C484.022 62.4726 483.65 62.3706 483.194 62.3706C482.594 62.3706 482.114 62.5626 481.754 62.9466C481.406 63.3186 481.22 63.9126 481.196 64.7286C481.172 65.1846 481.172 65.6046 481.196 65.9886C481.22 66.8166 481.406 67.4166 481.754 67.7886C482.114 68.1606 482.594 68.3466 483.194 68.3466C483.662 68.3466 484.04 68.2506 484.328 68.0586C484.616 67.8546 484.85 67.5126 485.03 67.0326C485.09 66.9126 485.15 66.8226 485.21 66.7626C485.282 66.7026 485.378 66.6726 485.498 66.6726H487.082C487.202 66.6726 487.304 66.7146 487.388 66.7986C487.484 66.8706 487.526 66.9726 487.514 67.1046C487.502 67.3206 487.442 67.5666 487.334 67.8426C487.238 68.1066 487.076 68.3826 486.848 68.6706C486.632 68.9466 486.356 69.2046 486.02 69.4446C485.684 69.6726 485.276 69.8586 484.796 70.0026C484.328 70.1466 483.782 70.2186 483.158 70.2186ZM493.423 70.2186C492.091 70.2186 491.035 69.8346 490.255 69.0666C489.475 68.2986 489.055 67.2066 488.995 65.7906C488.983 65.6706 488.977 65.5206 488.977 65.3406C488.977 65.1486 488.983 64.9986 488.995 64.8906C489.043 63.9906 489.247 63.2106 489.607 62.5506C489.979 61.8906 490.489 61.3866 491.137 61.0386C491.785 60.6786 492.547 60.4986 493.423 60.4986C494.395 60.4986 495.211 60.7026 495.871 61.1106C496.531 61.5066 497.029 62.0646 497.365 62.7846C497.701 63.4926 497.869 64.3146 497.869 65.2506V65.6286C497.869 65.7486 497.827 65.8506 497.743 65.9346C497.659 66.0186 497.551 66.0606 497.419 66.0606H491.443C491.443 66.0606 491.443 66.0786 491.443 66.1146C491.443 66.1506 491.443 66.1806 491.443 66.2046C491.455 66.6246 491.533 67.0146 491.677 67.3746C491.833 67.7226 492.055 68.0046 492.343 68.2206C492.643 68.4366 492.997 68.5446 493.405 68.5446C493.741 68.5446 494.023 68.4966 494.251 68.4006C494.479 68.2926 494.665 68.1726 494.809 68.0406C494.953 67.9086 495.055 67.8006 495.115 67.7166C495.223 67.5726 495.307 67.4886 495.367 67.4646C495.439 67.4286 495.541 67.4106 495.673 67.4106H497.221C497.341 67.4106 497.437 67.4466 497.509 67.5186C497.593 67.5906 497.629 67.6806 497.617 67.7886C497.605 67.9806 497.503 68.2146 497.311 68.4906C497.131 68.7666 496.867 69.0366 496.519 69.3006C496.171 69.5646 495.733 69.7866 495.205 69.9666C494.689 70.1346 494.095 70.2186 493.423 70.2186ZM491.443 64.5486H495.421V64.4946C495.421 64.0266 495.343 63.6186 495.187 63.2706C495.031 62.9226 494.803 62.6466 494.503 62.4426C494.203 62.2386 493.843 62.1366 493.423 62.1366C493.003 62.1366 492.643 62.2386 492.343 62.4426C492.043 62.6466 491.815 62.9226 491.659 63.2706C491.515 63.6186 491.443 64.0266 491.443 64.4946V64.5486ZM500.212 70.0386C500.092 70.0386 499.99 69.9966 499.906 69.9126C499.822 69.8286 499.78 69.7266 499.78 69.6066V61.1286C499.78 60.9966 499.822 60.8886 499.906 60.8046C499.99 60.7206 500.092 60.6786 500.212 60.6786H501.67C501.79 60.6786 501.892 60.7206 501.976 60.8046C502.072 60.8886 502.12 60.9966 502.12 61.1286V61.8666C502.396 61.4826 502.75 61.1886 503.182 60.9846C503.626 60.7806 504.136 60.6786 504.712 60.6786H505.45C505.582 60.6786 505.684 60.7206 505.756 60.8046C505.84 60.8886 505.882 60.9906 505.882 61.1106V62.4066C505.882 62.5266 505.84 62.6286 505.756 62.7126C505.684 62.7966 505.582 62.8386 505.45 62.8386H504.046C503.47 62.8386 503.02 63.0006 502.696 63.3246C502.384 63.6486 502.228 64.0926 502.228 64.6566V69.6066C502.228 69.7266 502.186 69.8286 502.102 69.9126C502.018 69.9966 501.91 70.0386 501.778 70.0386H500.212Z" fill="#363940"/>
<path fill-rule="evenodd" clip-rule="evenodd" d="M1137.73 136.869C1136.17 136.444 1129.94 136.444 1129.94 136.444C1129.94 136.444 1123.72 136.444 1122.15 136.845C1121.32 137.075 1120.63 137.755 1120.4 138.593C1119.99 140.134 1119.99 143.327 1119.99 143.327C1119.99 143.327 1119.99 146.532 1120.4 148.05C1120.63 148.887 1121.31 149.555 1122.15 149.786C1123.73 150.198 1129.94 150.198 1129.94 150.198C1129.94 150.198 1136.17 150.198 1137.73 149.798C1138.58 149.567 1139.26 148.912 1139.48 148.062C1139.9 146.532 1139.9 143.339 1139.9 143.339C1139.9 143.339 1139.91 140.134 1139.48 138.593C1139.26 137.755 1138.58 137.088 1137.73 136.869ZM1127.96 146.265V140.377L1133.14 143.327L1127.96 146.265Z" fill="#565656"/>
<path d="M1120.83 107.139C1120.86 106.849 1120.75 106.563 1120.53 106.368L1118.3 103.715V103.319H1125.23L1130.58 114.91L1135.29 103.319H1141.89V103.715L1139.98 105.52C1139.82 105.644 1139.74 105.848 1139.77 106.049V119.314C1139.74 119.514 1139.82 119.717 1139.98 119.841L1141.84 121.647V122.043H1132.48V121.647L1134.41 119.797C1134.59 119.61 1134.59 119.555 1134.59 119.269V108.548L1129.23 121.999H1128.51L1122.26 108.548V117.563C1122.21 117.942 1122.34 118.324 1122.61 118.597L1125.11 121.602V121.999H1118V121.602L1120.51 118.597C1120.78 118.323 1120.9 117.939 1120.83 117.563V107.139Z" fill="#565656"/>
<path d="M1133.22 92.7962V85.6959H1135.9L1136.31 82.6233H1133.22V80.6617C1133.22 79.7721 1133.47 79.1659 1134.77 79.1659L1136.41 79.1652V76.417C1136.13 76.3796 1135.15 76.2959 1134.01 76.2959C1131.64 76.2959 1130.01 77.7278 1130.01 80.3574V82.6233H1127.32V85.6959H1130.01V92.7962H1121.99C1120.89 92.7962 1119.99 91.9007 1119.99 90.7962V75.1421C1119.99 74.0375 1120.89 73.1421 1121.99 73.1421H1137.9C1139 73.1421 1139.9 74.0375 1139.9 75.1421V90.7962C1139.9 91.9008 1139 92.7962 1137.9 92.7962H1133.22Z" fill="#565656"/>
<path d="M1139.9 46.8218C1139.17 47.1428 1138.38 47.359 1137.55 47.4565C1138.4 46.9577 1139.04 46.1675 1139.35 45.2257C1138.56 45.6876 1137.69 46.0233 1136.75 46.2043C1136.01 45.4206 1134.95 44.9309 1133.77 44.9309C1131.14 44.9309 1129.2 47.3598 1129.79 49.8813C1126.4 49.7134 1123.39 48.1083 1121.38 45.6688C1120.31 47.481 1120.82 49.8518 1122.64 51.0523C1121.97 51.031 1121.34 50.8501 1120.79 50.5479C1120.75 52.4158 1122.1 54.1634 1124.07 54.5524C1123.49 54.7064 1122.86 54.7424 1122.22 54.6212C1122.74 56.223 1124.25 57.3883 1126.04 57.4211C1124.32 58.7502 1122.16 59.3439 1119.99 59.0917C1121.8 60.2357 1123.95 60.9031 1126.25 60.9031C1133.83 60.9031 1138.12 54.5802 1137.86 48.9092C1138.66 48.3401 1139.35 47.6301 1139.9 46.8218Z" fill="#565656"/>
<path d="M567.76 112C567.643 112 567.552 111.968 567.488 111.904C567.424 111.829 567.392 111.739 567.392 111.632V101.184C567.392 101.067 567.424 100.976 567.488 100.912C567.552 100.837 567.643 100.8 567.76 100.8H572.144C572.944 100.8 573.595 100.933 574.096 101.2C574.608 101.456 574.981 101.808 575.216 102.256C575.461 102.704 575.584 103.205 575.584 103.76C575.584 104.197 575.509 104.576 575.36 104.896C575.221 105.205 575.045 105.461 574.832 105.664C574.619 105.856 574.411 106.005 574.208 106.112C574.624 106.315 574.992 106.645 575.312 107.104C575.643 107.563 575.808 108.117 575.808 108.768C575.808 109.355 575.675 109.893 575.408 110.384C575.141 110.875 574.741 111.269 574.208 111.568C573.685 111.856 573.035 112 572.256 112H567.76ZM568.96 110.704H572.048C572.741 110.704 573.275 110.517 573.648 110.144C574.021 109.771 574.208 109.312 574.208 108.768C574.208 108.203 574.021 107.739 573.648 107.376C573.275 107.003 572.741 106.816 572.048 106.816H568.96V110.704ZM568.96 105.536H571.904C572.587 105.536 573.104 105.381 573.456 105.072C573.808 104.752 573.984 104.32 573.984 103.776C573.984 103.232 573.808 102.816 573.456 102.528C573.104 102.24 572.587 102.096 571.904 102.096H568.96V105.536ZM578.256 112C578.149 112 578.058 111.968 577.984 111.904C577.92 111.829 577.888 111.739 577.888 111.632V101.008C577.888 100.901 577.92 100.816 577.984 100.752C578.058 100.677 578.149 100.64 578.256 100.64H579.008C579.125 100.64 579.216 100.677 579.28 100.752C579.344 100.816 579.376 100.901 579.376 101.008V111.632C579.376 111.739 579.344 111.829 579.28 111.904C579.216 111.968 579.125 112 579.008 112H578.256ZM585.17 112.16C584.359 112.16 583.682 112.005 583.138 111.696C582.594 111.387 582.178 110.96 581.89 110.416C581.602 109.861 581.442 109.232 581.41 108.528C581.399 108.347 581.394 108.117 581.394 107.84C581.394 107.552 581.399 107.323 581.41 107.152C581.442 106.437 581.602 105.808 581.89 105.264C582.189 104.72 582.61 104.293 583.154 103.984C583.698 103.675 584.37 103.52 585.17 103.52C585.97 103.52 586.642 103.675 587.186 103.984C587.73 104.293 588.146 104.72 588.434 105.264C588.733 105.808 588.898 106.437 588.93 107.152C588.941 107.323 588.946 107.552 588.946 107.84C588.946 108.117 588.941 108.347 588.93 108.528C588.898 109.232 588.738 109.861 588.45 110.416C588.162 110.96 587.746 111.387 587.202 111.696C586.658 112.005 585.981 112.16 585.17 112.16ZM585.17 110.928C585.831 110.928 586.359 110.72 586.754 110.304C587.149 109.877 587.362 109.259 587.394 108.448C587.405 108.288 587.41 108.085 587.41 107.84C587.41 107.595 587.405 107.392 587.394 107.232C587.362 106.421 587.149 105.808 586.754 105.392C586.359 104.965 585.831 104.752 585.17 104.752C584.509 104.752 583.975 104.965 583.57 105.392C583.175 105.808 582.967 106.421 582.946 107.232C582.935 107.392 582.93 107.595 582.93 107.84C582.93 108.085 582.935 108.288 582.946 108.448C582.967 109.259 583.175 109.877 583.57 110.304C583.975 110.72 584.509 110.928 585.17 110.928ZM594.358 115.52C593.632 115.52 593.035 115.424 592.566 115.232C592.107 115.04 591.744 114.805 591.478 114.528C591.222 114.261 591.035 113.989 590.918 113.712C590.811 113.445 590.752 113.232 590.742 113.072C590.731 112.965 590.763 112.875 590.838 112.8C590.923 112.725 591.014 112.688 591.11 112.688H591.878C591.974 112.688 592.054 112.709 592.118 112.752C592.182 112.795 592.235 112.885 592.278 113.024C592.342 113.184 592.438 113.36 592.566 113.552C592.694 113.755 592.891 113.925 593.158 114.064C593.424 114.213 593.798 114.288 594.278 114.288C594.779 114.288 595.2 114.219 595.542 114.08C595.883 113.952 596.139 113.717 596.31 113.376C596.491 113.045 596.582 112.587 596.582 112V110.912C596.326 111.243 595.99 111.52 595.574 111.744C595.158 111.957 594.635 112.064 594.006 112.064C593.408 112.064 592.896 111.963 592.47 111.76C592.043 111.547 591.691 111.264 591.414 110.912C591.147 110.549 590.944 110.139 590.806 109.68C590.678 109.221 590.603 108.741 590.582 108.24C590.571 107.941 590.571 107.648 590.582 107.36C590.603 106.859 590.678 106.379 590.806 105.92C590.944 105.461 591.147 105.051 591.414 104.688C591.691 104.325 592.043 104.043 592.47 103.84C592.896 103.627 593.408 103.52 594.006 103.52C594.646 103.52 595.174 103.643 595.59 103.888C596.016 104.123 596.363 104.411 596.63 104.752V104.064C596.63 103.957 596.662 103.867 596.726 103.792C596.8 103.717 596.891 103.68 596.998 103.68H597.734C597.84 103.68 597.931 103.717 598.006 103.792C598.08 103.867 598.118 103.957 598.118 104.064V111.824C598.118 112.539 597.995 113.173 597.75 113.728C597.515 114.283 597.12 114.72 596.566 115.04C596.022 115.36 595.286 115.52 594.358 115.52ZM594.326 110.784C594.859 110.784 595.286 110.661 595.606 110.416C595.936 110.171 596.176 109.861 596.326 109.488C596.486 109.115 596.571 108.736 596.582 108.352C596.592 108.203 596.598 108.021 596.598 107.808C596.598 107.584 596.592 107.397 596.582 107.248C596.571 106.864 596.486 106.485 596.326 106.112C596.176 105.739 595.936 105.429 595.606 105.184C595.286 104.939 594.859 104.816 594.326 104.816C593.792 104.816 593.366 104.939 593.046 105.184C592.726 105.419 592.496 105.733 592.358 106.128C592.219 106.512 592.139 106.928 592.118 107.376C592.107 107.653 592.107 107.936 592.118 108.224C592.139 108.672 592.219 109.093 592.358 109.488C592.496 109.872 592.726 110.187 593.046 110.432C593.366 110.667 593.792 110.784 594.326 110.784Z" fill="#363940"/>
<path d="M566.63 70C566.534 70 566.444 69.964 566.36 69.892C566.288 69.82 566.252 69.73 566.252 69.622C566.252 69.574 566.264 69.52 566.288 69.46L570.626 57.85C570.662 57.73 570.728 57.628 570.824 57.544C570.932 57.448 571.076 57.4 571.256 57.4H573.218C573.398 57.4 573.536 57.448 573.632 57.544C573.728 57.628 573.8 57.73 573.848 57.85L578.186 69.46C578.198 69.52 578.204 69.574 578.204 69.622C578.204 69.73 578.168 69.82 578.096 69.892C578.024 69.964 577.94 70 577.844 70H576.278C576.11 70 575.984 69.964 575.9 69.892C575.828 69.808 575.78 69.73 575.756 69.658L574.91 67.462H569.564L568.718 69.658C568.694 69.73 568.64 69.808 568.556 69.892C568.484 69.964 568.364 70 568.196 70H566.63ZM570.194 65.392H574.28L572.228 59.83L570.194 65.392ZM571.904 56.5C571.748 56.5 571.622 56.482 571.526 56.446C571.442 56.41 571.352 56.35 571.256 56.266L569.024 54.43C568.964 54.37 568.934 54.298 568.934 54.214C568.934 53.986 569.048 53.872 569.276 53.872H571.202C571.358 53.872 571.478 53.896 571.562 53.944C571.658 53.98 571.76 54.064 571.868 54.196L573.344 55.978C573.404 56.038 573.434 56.116 573.434 56.212C573.434 56.404 573.338 56.5 573.146 56.5H571.904ZM583.757 73.42C583.637 73.42 583.535 73.378 583.451 73.294C583.367 73.21 583.325 73.108 583.325 72.988V61.072C583.325 60.952 583.367 60.85 583.451 60.766C583.535 60.682 583.637 60.64 583.757 60.64H585.179C585.311 60.64 585.413 60.682 585.485 60.766C585.569 60.85 585.611 60.952 585.611 61.072V61.792C585.899 61.408 586.277 61.09 586.745 60.838C587.213 60.586 587.795 60.46 588.491 60.46C589.127 60.46 589.679 60.562 590.147 60.766C590.615 60.97 591.005 61.264 591.317 61.648C591.629 62.02 591.869 62.464 592.037 62.98C592.205 63.496 592.301 64.066 592.325 64.69C592.337 64.894 592.343 65.104 592.343 65.32C592.343 65.536 592.337 65.752 592.325 65.968C592.313 66.568 592.223 67.126 592.055 67.642C591.887 68.146 591.641 68.59 591.317 68.974C591.005 69.346 590.615 69.64 590.147 69.856C589.679 70.072 589.127 70.18 588.491 70.18C587.843 70.18 587.291 70.066 586.835 69.838C586.379 69.598 586.007 69.286 585.719 68.902V72.988C585.719 73.108 585.677 73.21 585.593 73.294C585.521 73.378 585.419 73.42 585.287 73.42H583.757ZM587.825 68.254C588.341 68.254 588.743 68.146 589.031 67.93C589.319 67.702 589.523 67.408 589.643 67.048C589.775 66.688 589.853 66.292 589.877 65.86C589.901 65.5 589.901 65.14 589.877 64.78C589.853 64.348 589.775 63.952 589.643 63.592C589.523 63.232 589.319 62.944 589.031 62.728C588.743 62.5 588.341 62.386 587.825 62.386C587.333 62.386 586.931 62.5 586.619 62.728C586.319 62.956 586.097 63.25 585.953 63.61C585.821 63.958 585.743 64.318 585.719 64.69C585.707 64.906 585.701 65.134 585.701 65.374C585.701 65.614 585.707 65.848 585.719 66.076C585.731 66.436 585.815 66.784 585.971 67.12C586.127 67.444 586.355 67.714 586.655 67.93C586.955 68.146 587.345 68.254 587.825 68.254ZM594.796 70C594.676 70 594.574 69.958 594.49 69.874C594.406 69.79 594.364 69.688 594.364 69.568V61.09C594.364 60.958 594.406 60.85 594.49 60.766C594.574 60.682 594.676 60.64 594.796 60.64H596.254C596.374 60.64 596.476 60.682 596.56 60.766C596.656 60.85 596.704 60.958 596.704 61.09V61.828C596.98 61.444 597.334 61.15 597.766 60.946C598.21 60.742 598.72 60.64 599.296 60.64H600.034C600.166 60.64 600.268 60.682 600.34 60.766C600.424 60.85 600.466 60.952 600.466 61.072V62.368C600.466 62.488 600.424 62.59 600.34 62.674C600.268 62.758 600.166 62.8 600.034 62.8H598.63C598.054 62.8 597.604 62.962 597.28 63.286C596.968 63.61 596.812 64.054 596.812 64.618V69.568C596.812 69.688 596.77 69.79 596.686 69.874C596.602 69.958 596.494 70 596.362 70H594.796ZM605.887 70.18C604.927 70.18 604.117 70.012 603.457 69.676C602.809 69.34 602.311 68.866 601.963 68.254C601.627 67.642 601.435 66.928 601.387 66.112C601.375 65.896 601.369 65.632 601.369 65.32C601.369 65.008 601.375 64.744 601.387 64.528C601.435 63.7 601.633 62.986 601.981 62.386C602.341 61.774 602.845 61.3 603.493 60.964C604.153 60.628 604.951 60.46 605.887 60.46C606.823 60.46 607.615 60.628 608.263 60.964C608.923 61.3 609.427 61.774 609.775 62.386C610.135 62.986 610.339 63.7 610.387 64.528C610.399 64.744 610.405 65.008 610.405 65.32C610.405 65.632 610.399 65.896 610.387 66.112C610.339 66.928 610.141 67.642 609.793 68.254C609.457 68.866 608.959 69.34 608.299 69.676C607.651 70.012 606.847 70.18 605.887 70.18ZM605.887 68.398C606.523 68.398 607.015 68.2 607.363 67.804C607.711 67.396 607.903 66.802 607.939 66.022C607.951 65.842 607.957 65.608 607.957 65.32C607.957 65.032 607.951 64.798 607.939 64.618C607.903 63.85 607.711 63.262 607.363 62.854C607.015 62.446 606.523 62.242 605.887 62.242C605.251 62.242 604.759 62.446 604.411 62.854C604.063 63.262 603.871 63.85 603.835 64.618C603.823 64.798 603.817 65.032 603.817 65.32C603.817 65.608 603.823 65.842 603.835 66.022C603.871 66.802 604.063 67.396 604.411 67.804C604.759 68.2 605.251 68.398 605.887 68.398ZM612.849 73.42C612.729 73.42 612.627 73.378 612.543 73.294C612.459 73.21 612.417 73.108 612.417 72.988V61.072C612.417 60.952 612.459 60.85 612.543 60.766C612.627 60.682 612.729 60.64 612.849 60.64H614.271C614.403 60.64 614.505 60.682 614.577 60.766C614.661 60.85 614.703 60.952 614.703 61.072V61.792C614.991 61.408 615.369 61.09 615.837 60.838C616.305 60.586 616.887 60.46 617.583 60.46C618.219 60.46 618.771 60.562 619.239 60.766C619.707 60.97 620.097 61.264 620.409 61.648C620.721 62.02 620.961 62.464 621.129 62.98C621.297 63.496 621.393 64.066 621.417 64.69C621.429 64.894 621.435 65.104 621.435 65.32C621.435 65.536 621.429 65.752 621.417 65.968C621.405 66.568 621.315 67.126 621.147 67.642C620.979 68.146 620.733 68.59 620.409 68.974C620.097 69.346 619.707 69.64 619.239 69.856C618.771 70.072 618.219 70.18 617.583 70.18C616.935 70.18 616.383 70.066 615.927 69.838C615.471 69.598 615.099 69.286 614.811 68.902V72.988C614.811 73.108 614.769 73.21 614.685 73.294C614.613 73.378 614.511 73.42 614.379 73.42H612.849ZM616.917 68.254C617.433 68.254 617.835 68.146 618.123 67.93C618.411 67.702 618.615 67.408 618.735 67.048C618.867 66.688 618.945 66.292 618.969 65.86C618.993 65.5 618.993 65.14 618.969 64.78C618.945 64.348 618.867 63.952 618.735 63.592C618.615 63.232 618.411 62.944 618.123 62.728C617.835 62.5 617.433 62.386 616.917 62.386C616.425 62.386 616.023 62.5 615.711 62.728C615.411 62.956 615.189 63.25 615.045 63.61C614.913 63.958 614.835 64.318 614.811 64.69C614.799 64.906 614.793 65.134 614.793 65.374C614.793 65.614 614.799 65.848 614.811 66.076C614.823 66.436 614.907 66.784 615.063 67.12C615.219 67.444 615.447 67.714 615.747 67.93C616.047 68.146 616.437 68.254 616.917 68.254ZM627.596 70.18C626.636 70.18 625.826 70.012 625.166 69.676C624.518 69.34 624.02 68.866 623.672 68.254C623.336 67.642 623.144 66.928 623.096 66.112C623.084 65.896 623.078 65.632 623.078 65.32C623.078 65.008 623.084 64.744 623.096 64.528C623.144 63.7 623.342 62.986 623.69 62.386C624.05 61.774 624.554 61.3 625.202 60.964C625.862 60.628 626.66 60.46 627.596 60.46C628.532 60.46 629.324 60.628 629.972 60.964C630.632 61.3 631.136 61.774 631.484 62.386C631.844 62.986 632.048 63.7 632.096 64.528C632.108 64.744 632.114 65.008 632.114 65.32C632.114 65.632 632.108 65.896 632.096 66.112C632.048 66.928 631.85 67.642 631.502 68.254C631.166 68.866 630.668 69.34 630.008 69.676C629.36 70.012 628.556 70.18 627.596 70.18ZM627.596 68.398C628.232 68.398 628.724 68.2 629.072 67.804C629.42 67.396 629.612 66.802 629.648 66.022C629.66 65.842 629.666 65.608 629.666 65.32C629.666 65.032 629.66 64.798 629.648 64.618C629.612 63.85 629.42 63.262 629.072 62.854C628.724 62.446 628.232 62.242 627.596 62.242C626.96 62.242 626.468 62.446 626.12 62.854C625.772 63.262 625.58 63.85 625.544 64.618C625.532 64.798 625.526 65.032 625.526 65.32C625.526 65.608 625.532 65.842 625.544 66.022C625.58 66.802 625.772 67.396 626.12 67.804C626.468 68.2 626.96 68.398 627.596 68.398ZM637.654 70.18C636.934 70.18 636.316 70.096 635.8 69.928C635.296 69.76 634.882 69.55 634.558 69.298C634.234 69.046 633.994 68.794 633.838 68.542C633.682 68.29 633.598 68.08 633.586 67.912C633.574 67.78 633.61 67.678 633.694 67.606C633.79 67.522 633.892 67.48 634 67.48H635.422C635.47 67.48 635.512 67.486 635.548 67.498C635.584 67.51 635.632 67.546 635.692 67.606C635.848 67.738 636.01 67.876 636.178 68.02C636.358 68.164 636.568 68.29 636.808 68.398C637.048 68.494 637.348 68.542 637.708 68.542C638.176 68.542 638.566 68.452 638.878 68.272C639.202 68.08 639.364 67.81 639.364 67.462C639.364 67.21 639.292 67.006 639.148 66.85C639.016 66.694 638.764 66.556 638.392 66.436C638.02 66.304 637.492 66.166 636.808 66.022C636.136 65.866 635.578 65.668 635.134 65.428C634.69 65.188 634.36 64.888 634.144 64.528C633.928 64.168 633.82 63.748 633.82 63.268C633.82 62.8 633.958 62.356 634.234 61.936C634.522 61.504 634.942 61.15 635.494 60.874C636.058 60.598 636.754 60.46 637.582 60.46C638.23 60.46 638.794 60.544 639.274 60.712C639.754 60.868 640.15 61.066 640.462 61.306C640.786 61.546 641.032 61.792 641.2 62.044C641.368 62.284 641.458 62.494 641.47 62.674C641.482 62.806 641.446 62.914 641.362 62.998C641.278 63.07 641.182 63.106 641.074 63.106H639.742C639.682 63.106 639.628 63.094 639.58 63.07C639.532 63.046 639.484 63.016 639.436 62.98C639.304 62.86 639.16 62.734 639.004 62.602C638.848 62.47 638.656 62.356 638.428 62.26C638.212 62.152 637.924 62.098 637.564 62.098C637.108 62.098 636.76 62.2 636.52 62.404C636.28 62.596 636.16 62.842 636.16 63.142C636.16 63.346 636.214 63.526 636.322 63.682C636.442 63.826 636.676 63.964 637.024 64.096C637.372 64.228 637.9 64.366 638.608 64.51C639.412 64.654 640.048 64.87 640.516 65.158C640.996 65.434 641.332 65.758 641.524 66.13C641.728 66.49 641.83 66.892 641.83 67.336C641.83 67.876 641.668 68.362 641.344 68.794C641.032 69.226 640.564 69.568 639.94 69.82C639.328 70.06 638.566 70.18 637.654 70.18Z" fill="#363940"/>
<path d="M238.76 143C238.643 143 238.552 142.968 238.488 142.904C238.424 142.829 238.392 142.739 238.392 142.632V132.184C238.392 132.067 238.424 131.976 238.488 131.912C238.552 131.837 238.643 131.8 238.76 131.8H245.368C245.485 131.8 245.576 131.837 245.64 131.912C245.704 131.976 245.736 132.067 245.736 132.184V132.792C245.736 132.909 245.704 133 245.64 133.064C245.576 133.128 245.485 133.16 245.368 133.16H239.928V136.664H245.016C245.133 136.664 245.224 136.701 245.288 136.776C245.352 136.84 245.384 136.931 245.384 137.048V137.64C245.384 137.747 245.352 137.837 245.288 137.912C245.224 137.976 245.133 138.008 245.016 138.008H239.928V141.64H245.496C245.613 141.64 245.704 141.672 245.768 141.736C245.832 141.8 245.864 141.891 245.864 142.008V142.632C245.864 142.739 245.832 142.829 245.768 142.904C245.704 142.968 245.613 143 245.496 143H238.76ZM241.416 131C241.245 131 241.16 130.915 241.16 130.744C241.16 130.659 241.187 130.589 241.24 130.536L242.44 129.096C242.536 128.979 242.621 128.904 242.696 128.872C242.771 128.829 242.883 128.808 243.032 128.808H244.216C244.419 128.808 244.52 128.909 244.52 129.112C244.52 129.187 244.493 129.251 244.44 129.304L242.584 130.824C242.499 130.899 242.419 130.947 242.344 130.968C242.269 130.989 242.173 131 242.056 131H241.416ZM253.809 146.04C253.692 146.04 253.601 146.003 253.537 145.928C253.473 145.864 253.441 145.779 253.441 145.672V141.96C253.175 142.301 252.828 142.589 252.401 142.824C251.985 143.048 251.468 143.16 250.849 143.16C250.263 143.16 249.756 143.059 249.329 142.856C248.903 142.643 248.551 142.365 248.273 142.024C248.007 141.672 247.804 141.272 247.665 140.824C247.537 140.365 247.463 139.885 247.441 139.384C247.431 139.213 247.425 139.032 247.425 138.84C247.425 138.648 247.431 138.467 247.441 138.296C247.463 137.784 247.537 137.304 247.665 136.856C247.804 136.408 248.007 136.008 248.273 135.656C248.551 135.304 248.903 135.027 249.329 134.824C249.756 134.621 250.263 134.52 250.849 134.52C251.489 134.52 252.023 134.637 252.449 134.872C252.876 135.107 253.217 135.4 253.473 135.752V135.048C253.473 134.941 253.505 134.856 253.569 134.792C253.644 134.717 253.735 134.68 253.841 134.68H254.577C254.684 134.68 254.769 134.717 254.833 134.792C254.908 134.856 254.945 134.941 254.945 135.048V145.672C254.945 145.779 254.908 145.864 254.833 145.928C254.769 146.003 254.684 146.04 254.577 146.04H253.809ZM251.185 141.864C251.697 141.864 252.113 141.747 252.433 141.512C252.764 141.277 253.009 140.979 253.169 140.616C253.34 140.253 253.431 139.885 253.441 139.512C253.452 139.331 253.457 139.123 253.457 138.888C253.457 138.653 253.452 138.451 253.441 138.28C253.431 137.885 253.345 137.501 253.185 137.128C253.025 136.744 252.78 136.429 252.449 136.184C252.129 135.939 251.708 135.816 251.185 135.816C250.641 135.816 250.209 135.939 249.889 136.184C249.569 136.419 249.34 136.733 249.201 137.128C249.063 137.512 248.983 137.928 248.961 138.376C248.951 138.685 248.951 138.995 248.961 139.304C248.983 139.752 249.063 140.173 249.201 140.568C249.34 140.952 249.569 141.267 249.889 141.512C250.209 141.747 250.641 141.864 251.185 141.864ZM260.429 143.16C259.746 143.16 259.165 143.011 258.685 142.712C258.215 142.403 257.858 141.976 257.613 141.432C257.367 140.888 257.245 140.264 257.245 139.56V135.048C257.245 134.941 257.277 134.856 257.341 134.792C257.415 134.717 257.506 134.68 257.613 134.68H258.413C258.519 134.68 258.605 134.717 258.669 134.792C258.743 134.856 258.781 134.941 258.781 135.048V139.48C258.781 141.069 259.474 141.864 260.861 141.864C261.522 141.864 262.05 141.656 262.445 141.24C262.85 140.813 263.053 140.227 263.053 139.48V135.048C263.053 134.941 263.085 134.856 263.149 134.792C263.223 134.717 263.314 134.68 263.421 134.68H264.205C264.322 134.68 264.413 134.717 264.477 134.792C264.541 134.856 264.573 134.941 264.573 135.048V142.632C264.573 142.739 264.541 142.829 264.477 142.904C264.413 142.968 264.322 143 264.205 143H263.469C263.362 143 263.271 142.968 263.197 142.904C263.133 142.829 263.101 142.739 263.101 142.632V141.928C262.813 142.301 262.461 142.6 262.045 142.824C261.639 143.048 261.101 143.16 260.429 143.16ZM267.318 143C267.211 143 267.12 142.968 267.046 142.904C266.982 142.829 266.95 142.739 266.95 142.632V135.048C266.95 134.941 266.982 134.856 267.046 134.792C267.12 134.717 267.211 134.68 267.318 134.68H268.086C268.192 134.68 268.278 134.717 268.342 134.792C268.406 134.856 268.438 134.941 268.438 135.048V142.632C268.438 142.739 268.406 142.829 268.342 142.904C268.278 142.968 268.192 143 268.086 143H267.318ZM267.19 133.128C267.083 133.128 266.992 133.096 266.918 133.032C266.854 132.957 266.822 132.867 266.822 132.76V131.896C266.822 131.789 266.854 131.704 266.918 131.64C266.992 131.565 267.083 131.528 267.19 131.528H268.198C268.304 131.528 268.39 131.565 268.454 131.64C268.528 131.704 268.566 131.789 268.566 131.896V132.76C268.566 132.867 268.528 132.957 268.454 133.032C268.39 133.096 268.304 133.128 268.198 133.128H267.19ZM271.365 146.04C271.258 146.04 271.168 146.003 271.093 145.928C271.029 145.864 270.997 145.779 270.997 145.672V135.048C270.997 134.941 271.029 134.856 271.093 134.792C271.168 134.717 271.258 134.68 271.365 134.68H272.101C272.208 134.68 272.293 134.717 272.357 134.792C272.432 134.856 272.469 134.941 272.469 135.048V135.752C272.725 135.4 273.066 135.107 273.493 134.872C273.92 134.637 274.453 134.52 275.093 134.52C275.69 134.52 276.197 134.621 276.613 134.824C277.04 135.027 277.386 135.304 277.653 135.656C277.93 136.008 278.138 136.408 278.277 136.856C278.416 137.304 278.49 137.784 278.501 138.296C278.512 138.467 278.517 138.648 278.517 138.84C278.517 139.032 278.512 139.213 278.501 139.384C278.49 139.885 278.416 140.365 278.277 140.824C278.138 141.272 277.93 141.672 277.653 142.024C277.386 142.365 277.04 142.643 276.613 142.856C276.197 143.059 275.69 143.16 275.093 143.16C274.474 143.16 273.952 143.048 273.525 142.824C273.109 142.589 272.768 142.301 272.501 141.96V145.672C272.501 145.779 272.469 145.864 272.405 145.928C272.341 146.003 272.25 146.04 272.133 146.04H271.365ZM274.757 141.864C275.312 141.864 275.744 141.747 276.053 141.512C276.373 141.267 276.602 140.952 276.741 140.568C276.88 140.173 276.96 139.752 276.981 139.304C276.992 138.995 276.992 138.685 276.981 138.376C276.96 137.928 276.88 137.512 276.741 137.128C276.602 136.733 276.373 136.419 276.053 136.184C275.744 135.939 275.312 135.816 274.757 135.816C274.234 135.816 273.808 135.939 273.477 136.184C273.157 136.429 272.917 136.744 272.757 137.128C272.608 137.501 272.522 137.885 272.501 138.28C272.49 138.451 272.485 138.653 272.485 138.888C272.485 139.123 272.49 139.331 272.501 139.512C272.512 139.885 272.597 140.253 272.757 140.616C272.928 140.979 273.178 141.277 273.509 141.512C273.84 141.747 274.256 141.864 274.757 141.864ZM283.824 143.16C282.725 143.16 281.851 142.824 281.2 142.152C280.549 141.469 280.192 140.541 280.128 139.368C280.117 139.229 280.112 139.053 280.112 138.84C280.112 138.616 280.117 138.435 280.128 138.296C280.171 137.539 280.347 136.877 280.656 136.312C280.965 135.736 281.387 135.293 281.92 134.984C282.464 134.675 283.099 134.52 283.824 134.52C284.635 134.52 285.312 134.691 285.856 135.032C286.411 135.373 286.832 135.859 287.12 136.488C287.408 137.117 287.552 137.853 287.552 138.696V138.968C287.552 139.085 287.515 139.176 287.44 139.24C287.376 139.304 287.291 139.336 287.184 139.336H281.648C281.648 139.347 281.648 139.368 281.648 139.4C281.648 139.432 281.648 139.459 281.648 139.48C281.669 139.917 281.765 140.328 281.936 140.712C282.107 141.085 282.352 141.389 282.672 141.624C282.992 141.859 283.376 141.976 283.824 141.976C284.208 141.976 284.528 141.917 284.784 141.8C285.04 141.683 285.248 141.555 285.408 141.416C285.568 141.267 285.675 141.155 285.728 141.08C285.824 140.941 285.899 140.861 285.952 140.84C286.005 140.808 286.091 140.792 286.208 140.792H286.976C287.083 140.792 287.168 140.824 287.232 140.888C287.307 140.941 287.339 141.021 287.328 141.128C287.317 141.288 287.232 141.485 287.072 141.72C286.912 141.944 286.683 142.168 286.384 142.392C286.085 142.616 285.723 142.803 285.296 142.952C284.869 143.091 284.379 143.16 283.824 143.16ZM281.648 138.232H286.032V138.184C286.032 137.704 285.941 137.277 285.76 136.904C285.589 136.531 285.339 136.237 285.008 136.024C284.677 135.8 284.283 135.688 283.824 135.688C283.365 135.688 282.971 135.8 282.64 136.024C282.32 136.237 282.075 136.531 281.904 136.904C281.733 137.277 281.648 137.704 281.648 138.184V138.232ZM292.345 143.16C291.748 143.16 291.236 143.085 290.809 142.936C290.383 142.787 290.036 142.605 289.769 142.392C289.503 142.179 289.3 141.965 289.161 141.752C289.033 141.539 288.964 141.368 288.953 141.24C288.943 141.123 288.98 141.032 289.065 140.968C289.151 140.904 289.236 140.872 289.321 140.872H290.025C290.089 140.872 290.137 140.883 290.169 140.904C290.212 140.915 290.265 140.957 290.329 141.032C290.468 141.181 290.623 141.331 290.793 141.48C290.964 141.629 291.172 141.752 291.417 141.848C291.673 141.944 291.988 141.992 292.361 141.992C292.905 141.992 293.353 141.891 293.705 141.688C294.057 141.475 294.233 141.165 294.233 140.76C294.233 140.493 294.159 140.28 294.009 140.12C293.871 139.96 293.615 139.816 293.241 139.688C292.879 139.56 292.377 139.427 291.737 139.288C291.097 139.139 290.591 138.957 290.217 138.744C289.844 138.52 289.577 138.259 289.417 137.96C289.257 137.651 289.177 137.304 289.177 136.92C289.177 136.525 289.295 136.147 289.529 135.784C289.764 135.411 290.105 135.107 290.553 134.872C291.012 134.637 291.583 134.52 292.265 134.52C292.82 134.52 293.295 134.589 293.689 134.728C294.084 134.867 294.409 135.043 294.665 135.256C294.921 135.459 295.113 135.661 295.241 135.864C295.369 136.067 295.439 136.237 295.449 136.376C295.46 136.483 295.428 136.573 295.353 136.648C295.279 136.712 295.193 136.744 295.097 136.744H294.425C294.351 136.744 294.287 136.728 294.233 136.696C294.191 136.664 294.148 136.627 294.105 136.584C293.999 136.445 293.871 136.307 293.721 136.168C293.583 136.029 293.396 135.917 293.161 135.832C292.937 135.736 292.639 135.688 292.265 135.688C291.732 135.688 291.332 135.8 291.065 136.024C290.799 136.248 290.665 136.531 290.665 136.872C290.665 137.075 290.724 137.256 290.841 137.416C290.959 137.576 291.183 137.72 291.513 137.848C291.844 137.976 292.335 138.115 292.985 138.264C293.689 138.403 294.244 138.589 294.649 138.824C295.055 139.059 295.343 139.331 295.513 139.64C295.684 139.949 295.769 140.307 295.769 140.712C295.769 141.16 295.636 141.571 295.369 141.944C295.113 142.317 294.729 142.616 294.217 142.84C293.716 143.053 293.092 143.16 292.345 143.16Z" fill="#363940"/>
<path d="M238.76 111C238.643 111 238.552 110.968 238.488 110.904C238.424 110.829 238.392 110.739 238.392 110.632V100.184C238.392 100.067 238.424 99.976 238.488 99.912C238.552 99.8373 238.643 99.8 238.76 99.8H242.824C243.613 99.8 244.296 99.928 244.872 100.184C245.459 100.44 245.912 100.824 246.232 101.336C246.552 101.837 246.712 102.467 246.712 103.224C246.712 103.981 246.552 104.611 246.232 105.112C245.912 105.613 245.459 105.992 244.872 106.248C244.296 106.504 243.613 106.632 242.824 106.632H239.992V110.632C239.992 110.739 239.955 110.829 239.88 110.904C239.816 110.968 239.725 111 239.608 111H238.76ZM239.976 105.288H242.744C243.533 105.288 244.125 105.112 244.52 104.76C244.915 104.408 245.112 103.896 245.112 103.224C245.112 102.563 244.92 102.051 244.536 101.688C244.152 101.325 243.555 101.144 242.744 101.144H239.976V105.288ZM248.818 111C248.711 111 248.62 110.968 248.546 110.904C248.482 110.829 248.45 110.739 248.45 110.632V103.064C248.45 102.957 248.482 102.867 248.546 102.792C248.62 102.717 248.711 102.68 248.818 102.68H249.554C249.66 102.68 249.751 102.717 249.826 102.792C249.9 102.867 249.938 102.957 249.938 103.064V103.768C250.151 103.405 250.444 103.133 250.818 102.952C251.191 102.771 251.639 102.68 252.162 102.68H252.802C252.908 102.68 252.994 102.717 253.058 102.792C253.122 102.856 253.154 102.941 253.154 103.048V103.704C253.154 103.811 253.122 103.896 253.058 103.96C252.994 104.024 252.908 104.056 252.802 104.056H251.842C251.266 104.056 250.812 104.227 250.482 104.568C250.151 104.899 249.986 105.352 249.986 105.928V110.632C249.986 110.739 249.948 110.829 249.874 110.904C249.799 110.968 249.708 111 249.602 111H248.818ZM254.896 111C254.789 111 254.698 110.968 254.624 110.904C254.56 110.829 254.528 110.739 254.528 110.632V103.048C254.528 102.941 254.56 102.856 254.624 102.792C254.698 102.717 254.789 102.68 254.896 102.68H255.664C255.77 102.68 255.856 102.717 255.92 102.792C255.984 102.856 256.016 102.941 256.016 103.048V110.632C256.016 110.739 255.984 110.829 255.92 110.904C255.856 110.968 255.77 111 255.664 111H254.896ZM254.768 101.128C254.661 101.128 254.57 101.096 254.496 101.032C254.432 100.957 254.4 100.867 254.4 100.76V99.896C254.4 99.7893 254.432 99.704 254.496 99.64C254.57 99.5653 254.661 99.528 254.768 99.528H255.776C255.882 99.528 255.968 99.5653 256.032 99.64C256.106 99.704 256.144 99.7893 256.144 99.896V100.76C256.144 100.867 256.106 100.957 256.032 101.032C255.968 101.096 255.882 101.128 255.776 101.128H254.768ZM258.019 111C257.933 111 257.853 110.968 257.779 110.904C257.715 110.84 257.683 110.76 257.683 110.664C257.683 110.632 257.688 110.595 257.699 110.552C257.72 110.499 257.752 110.44 257.795 110.376L260.579 106.744L257.971 103.304C257.928 103.24 257.896 103.187 257.875 103.144C257.864 103.101 257.859 103.059 257.859 103.016C257.859 102.92 257.891 102.84 257.955 102.776C258.019 102.712 258.099 102.68 258.195 102.68H259.011C259.128 102.68 259.213 102.712 259.267 102.776C259.331 102.829 259.384 102.883 259.427 102.936L261.555 105.704L263.683 102.952C263.725 102.899 263.773 102.84 263.827 102.776C263.891 102.712 263.981 102.68 264.099 102.68H264.883C264.979 102.68 265.059 102.712 265.123 102.776C265.187 102.84 265.219 102.92 265.219 103.016C265.219 103.059 265.208 103.101 265.187 103.144C265.176 103.187 265.149 103.24 265.107 103.304L262.467 106.776L265.251 110.376C265.293 110.44 265.32 110.493 265.331 110.536C265.352 110.579 265.363 110.621 265.363 110.664C265.363 110.76 265.331 110.84 265.267 110.904C265.203 110.968 265.123 111 265.027 111H264.179C264.072 111 263.987 110.973 263.923 110.92C263.859 110.867 263.805 110.813 263.763 110.76L261.507 107.832L259.251 110.76C259.208 110.803 259.155 110.856 259.091 110.92C259.037 110.973 258.952 111 258.835 111H258.019Z" fill="#363940"/>
<path d="M238.836 70C238.716 70 238.614 69.958 238.53 69.874C238.446 69.79 238.404 69.688 238.404 69.568V57.85C238.404 57.718 238.446 57.61 238.53 57.526C238.614 57.442 238.716 57.4 238.836 57.4H243.66C244.596 57.4 245.412 57.55 246.108 57.85C246.804 58.138 247.344 58.582 247.728 59.182C248.112 59.77 248.304 60.508 248.304 61.396C248.304 62.296 248.112 63.04 247.728 63.628C247.344 64.204 246.804 64.636 246.108 64.924C245.412 65.212 244.596 65.356 243.66 65.356H240.978V69.568C240.978 69.688 240.936 69.79 240.852 69.874C240.78 69.958 240.678 70 240.546 70H238.836ZM240.942 63.358H243.57C244.266 63.358 244.8 63.196 245.172 62.872C245.544 62.536 245.73 62.044 245.73 61.396C245.73 60.796 245.556 60.316 245.208 59.956C244.86 59.584 244.314 59.398 243.57 59.398H240.942V63.358ZM250.485 70C250.365 70 250.263 69.958 250.179 69.874C250.095 69.79 250.053 69.688 250.053 69.568V61.09C250.053 60.958 250.095 60.85 250.179 60.766C250.263 60.682 250.365 60.64 250.485 60.64H251.943C252.063 60.64 252.165 60.682 252.249 60.766C252.345 60.85 252.393 60.958 252.393 61.09V61.828C252.669 61.444 253.023 61.15 253.455 60.946C253.899 60.742 254.409 60.64 254.985 60.64H255.723C255.855 60.64 255.957 60.682 256.029 60.766C256.113 60.85 256.155 60.952 256.155 61.072V62.368C256.155 62.488 256.113 62.59 256.029 62.674C255.957 62.758 255.855 62.8 255.723 62.8H254.319C253.743 62.8 253.293 62.962 252.969 63.286C252.657 63.61 252.501 64.054 252.501 64.618V69.568C252.501 69.688 252.459 69.79 252.375 69.874C252.291 69.958 252.183 70 252.051 70H250.485ZM261.576 70.18C260.616 70.18 259.806 70.012 259.146 69.676C258.498 69.34 258 68.866 257.652 68.254C257.316 67.642 257.124 66.928 257.076 66.112C257.064 65.896 257.058 65.632 257.058 65.32C257.058 65.008 257.064 64.744 257.076 64.528C257.124 63.7 257.322 62.986 257.67 62.386C258.03 61.774 258.534 61.3 259.182 60.964C259.842 60.628 260.64 60.46 261.576 60.46C262.512 60.46 263.304 60.628 263.952 60.964C264.612 61.3 265.116 61.774 265.464 62.386C265.824 62.986 266.028 63.7 266.076 64.528C266.088 64.744 266.094 65.008 266.094 65.32C266.094 65.632 266.088 65.896 266.076 66.112C266.028 66.928 265.83 67.642 265.482 68.254C265.146 68.866 264.648 69.34 263.988 69.676C263.34 70.012 262.536 70.18 261.576 70.18ZM261.576 68.398C262.212 68.398 262.704 68.2 263.052 67.804C263.4 67.396 263.592 66.802 263.628 66.022C263.64 65.842 263.646 65.608 263.646 65.32C263.646 65.032 263.64 64.798 263.628 64.618C263.592 63.85 263.4 63.262 263.052 62.854C262.704 62.446 262.212 62.242 261.576 62.242C260.94 62.242 260.448 62.446 260.1 62.854C259.752 63.262 259.56 63.85 259.524 64.618C259.512 64.798 259.506 65.032 259.506 65.32C259.506 65.608 259.512 65.842 259.524 66.022C259.56 66.802 259.752 67.396 260.1 67.804C260.448 68.2 260.94 68.398 261.576 68.398ZM271.562 70.18C270.938 70.18 270.386 70.078 269.906 69.874C269.438 69.658 269.048 69.358 268.736 68.974C268.424 68.59 268.184 68.14 268.016 67.624C267.848 67.096 267.752 66.52 267.728 65.896C267.716 65.68 267.71 65.488 267.71 65.32C267.71 65.14 267.716 64.942 267.728 64.726C267.752 64.126 267.842 63.568 267.998 63.052C268.166 62.536 268.406 62.086 268.718 61.702C269.042 61.306 269.438 61 269.906 60.784C270.386 60.568 270.938 60.46 271.562 60.46C272.21 60.46 272.756 60.574 273.2 60.802C273.656 61.018 274.034 61.3 274.334 61.648V57.652C274.334 57.532 274.37 57.43 274.442 57.346C274.526 57.262 274.634 57.22 274.766 57.22H276.296C276.416 57.22 276.518 57.262 276.602 57.346C276.686 57.43 276.728 57.532 276.728 57.652V69.568C276.728 69.688 276.686 69.79 276.602 69.874C276.518 69.958 276.416 70 276.296 70H274.874C274.742 70 274.634 69.958 274.55 69.874C274.478 69.79 274.442 69.688 274.442 69.568V68.902C274.142 69.274 273.758 69.58 273.29 69.82C272.834 70.06 272.258 70.18 271.562 70.18ZM272.228 68.254C272.732 68.254 273.134 68.14 273.434 67.912C273.734 67.684 273.956 67.396 274.1 67.048C274.244 66.688 274.322 66.322 274.334 65.95C274.346 65.734 274.352 65.506 274.352 65.266C274.352 65.014 274.346 64.78 274.334 64.564C274.322 64.204 274.238 63.862 274.082 63.538C273.926 63.202 273.698 62.926 273.398 62.71C273.098 62.494 272.708 62.386 272.228 62.386C271.724 62.386 271.322 62.5 271.022 62.728C270.734 62.944 270.524 63.232 270.392 63.592C270.26 63.952 270.182 64.348 270.158 64.78C270.146 65.14 270.146 65.5 270.158 65.86C270.182 66.292 270.26 66.688 270.392 67.048C270.524 67.408 270.734 67.702 271.022 67.93C271.322 68.146 271.724 68.254 272.228 68.254ZM282.601 70.18C281.869 70.18 281.233 70.018 280.693 69.694C280.165 69.358 279.757 68.89 279.469 68.29C279.181 67.678 279.037 66.958 279.037 66.13V61.072C279.037 60.952 279.079 60.85 279.163 60.766C279.247 60.682 279.349 60.64 279.469 60.64H281.053C281.185 60.64 281.287 60.682 281.359 60.766C281.443 60.85 281.485 60.952 281.485 61.072V66.022C281.485 67.51 282.139 68.254 283.447 68.254C284.071 68.254 284.563 68.056 284.923 67.66C285.295 67.264 285.481 66.718 285.481 66.022V61.072C285.481 60.952 285.523 60.85 285.607 60.766C285.691 60.682 285.793 60.64 285.913 60.64H287.497C287.617 60.64 287.719 60.682 287.803 60.766C287.887 60.85 287.929 60.952 287.929 61.072V69.568C287.929 69.688 287.887 69.79 287.803 69.874C287.719 69.958 287.617 70 287.497 70H286.039C285.907 70 285.799 69.958 285.715 69.874C285.643 69.79 285.607 69.688 285.607 69.568V68.83C285.283 69.25 284.881 69.58 284.401 69.82C283.921 70.06 283.321 70.18 282.601 70.18ZM290.739 70C290.619 70 290.517 69.958 290.433 69.874C290.349 69.79 290.307 69.688 290.307 69.568V61.072C290.307 60.952 290.349 60.85 290.433 60.766C290.517 60.682 290.619 60.64 290.739 60.64H292.233C292.365 60.64 292.467 60.682 292.539 60.766C292.623 60.85 292.665 60.952 292.665 61.072V69.568C292.665 69.688 292.623 69.79 292.539 69.874C292.467 69.958 292.365 70 292.233 70H290.739ZM290.667 59.092C290.535 59.092 290.427 59.056 290.343 58.984C290.271 58.9 290.235 58.792 290.235 58.66V57.364C290.235 57.244 290.271 57.142 290.343 57.058C290.427 56.974 290.535 56.932 290.667 56.932H292.305C292.437 56.932 292.545 56.974 292.629 57.058C292.713 57.142 292.755 57.244 292.755 57.364V58.66C292.755 58.792 292.713 58.9 292.629 58.984C292.545 59.056 292.437 59.092 292.305 59.092H290.667ZM299.283 70C298.563 70 297.957 69.874 297.465 69.622C296.973 69.37 296.607 68.998 296.367 68.506C296.127 68.002 296.007 67.378 296.007 66.634V62.548H294.585C294.465 62.548 294.363 62.506 294.279 62.422C294.195 62.338 294.153 62.236 294.153 62.116V61.072C294.153 60.952 294.195 60.85 294.279 60.766C294.363 60.682 294.465 60.64 294.585 60.64H296.007V57.652C296.007 57.532 296.043 57.43 296.115 57.346C296.199 57.262 296.307 57.22 296.439 57.22H297.897C298.017 57.22 298.119 57.262 298.203 57.346C298.287 57.43 298.329 57.532 298.329 57.652V60.64H300.579C300.699 60.64 300.801 60.682 300.885 60.766C300.969 60.85 301.011 60.952 301.011 61.072V62.116C301.011 62.236 300.969 62.338 300.885 62.422C300.801 62.506 300.699 62.548 300.579 62.548H298.329V66.454C298.329 66.946 298.413 67.33 298.581 67.606C298.761 67.882 299.067 68.02 299.499 68.02H300.741C300.861 68.02 300.963 68.062 301.047 68.146C301.131 68.23 301.173 68.332 301.173 68.452V69.568C301.173 69.688 301.131 69.79 301.047 69.874C300.963 69.958 300.861 70 300.741 70H299.283Z" fill="#363940"/>
</svg>
