<svg width="1440" height="70" viewBox="0 0 1440 70" fill="none" xmlns="http://www.w3.org/2000/svg">
<g clip-path="url(#clip0_1027_5668)">
<rect width="1440" height="70" fill="white"/>
<path d="M1273.59 19H1237.6C1235.62 19 1234 20.55 1234 22.4444V46.5556C1234 48.45 1235.62 50 1237.6 50H1273.59C1275.57 50 1277.17 48.45 1277.17 46.5556L1277.19 22.4444C1277.19 20.55 1275.57 19 1273.59 19ZM1273.59 46.5556H1237.6V22.4444H1273.59V46.5556ZM1268.21 44.8161L1271.79 41.3889L1269.07 37.9444H1266.12C1265.72 36.8594 1265.49 35.7056 1265.49 34.5C1265.49 33.2944 1265.72 32.1406 1266.12 31.0556H1269.07L1271.79 27.6111L1268.21 24.1839C1265.82 25.8903 1264.09 28.3074 1263.29 31.0556C1262.97 32.1578 1262.79 33.3117 1262.79 34.5C1262.79 35.6883 1262.97 36.8422 1263.29 37.9444C1264.1 40.6905 1265.82 43.1062 1268.21 44.8161V44.8161ZM1250.19 34.5C1253.16 34.5 1255.59 32.175 1255.59 29.3333C1255.59 26.4917 1253.16 24.1667 1250.19 24.1667C1247.23 24.1667 1244.8 26.4917 1244.8 29.3333C1244.8 32.175 1247.23 34.5 1250.19 34.5ZM1250.19 27.6111C1251.18 27.6111 1251.99 28.3861 1251.99 29.3333C1251.99 30.2806 1251.18 31.0556 1250.19 31.0556C1249.2 31.0556 1248.4 30.2806 1248.4 29.3333C1248.4 28.3861 1249.2 27.6111 1250.19 27.6111ZM1260.99 42.405C1260.99 38.0994 1253.85 36.2394 1250.19 36.2394C1246.54 36.2394 1239.4 38.0994 1239.4 42.405V44.8333H1260.99V42.405ZM1243.86 41.3889C1245.19 40.5278 1247.86 39.6667 1250.19 39.6667C1252.53 39.6667 1255.18 40.5106 1256.53 41.3889H1243.86Z" fill="black"/>
<path d="M1292.15 40.16C1291.14 40.16 1290.27 39.9947 1289.54 39.664C1288.83 39.3333 1288.27 38.848 1287.86 38.208C1287.47 37.568 1287.25 36.7733 1287.21 35.824C1287.2 35.3867 1287.19 34.9173 1287.19 34.416C1287.19 33.9147 1287.2 33.4347 1287.21 32.976C1287.25 32.048 1287.47 31.264 1287.88 30.624C1288.28 29.9733 1288.85 29.4827 1289.58 29.152C1290.3 28.8107 1291.16 28.64 1292.15 28.64C1292.86 28.64 1293.51 28.7307 1294.1 28.912C1294.7 29.0827 1295.22 29.3387 1295.67 29.68C1296.12 30.0107 1296.47 30.416 1296.71 30.896C1296.97 31.3653 1297.1 31.8987 1297.11 32.496C1297.12 32.592 1297.09 32.672 1297.02 32.736C1296.95 32.8 1296.87 32.832 1296.78 32.832H1294.62C1294.48 32.832 1294.37 32.8053 1294.3 32.752C1294.22 32.688 1294.16 32.576 1294.1 32.416C1293.95 31.8507 1293.71 31.4667 1293.37 31.264C1293.04 31.0507 1292.63 30.944 1292.14 30.944C1291.55 30.944 1291.08 31.1093 1290.74 31.44C1290.4 31.76 1290.22 32.2987 1290.18 33.056C1290.15 33.9307 1290.15 34.8267 1290.18 35.744C1290.22 36.5013 1290.4 37.0453 1290.74 37.376C1291.08 37.696 1291.55 37.856 1292.14 37.856C1292.63 37.856 1293.04 37.7493 1293.38 37.536C1293.72 37.3227 1293.96 36.9387 1294.1 36.384C1294.15 36.224 1294.2 36.1173 1294.28 36.064C1294.36 36 1294.48 35.968 1294.62 35.968H1296.78C1296.87 35.968 1296.95 36 1297.02 36.064C1297.09 36.128 1297.12 36.208 1297.11 36.304C1297.1 36.9013 1296.97 37.44 1296.71 37.92C1296.47 38.3893 1296.12 38.7947 1295.67 39.136C1295.22 39.4667 1294.7 39.7227 1294.1 39.904C1293.51 40.0747 1292.86 40.16 1292.15 40.16ZM1304.05 40.16C1303.16 40.16 1302.4 40.016 1301.78 39.728C1301.17 39.44 1300.7 39.0293 1300.37 38.496C1300.05 37.952 1299.87 37.3067 1299.83 36.56C1299.82 36.3467 1299.81 36.1067 1299.81 35.84C1299.81 35.5627 1299.82 35.3227 1299.83 35.12C1299.87 34.3627 1300.06 33.7173 1300.41 33.184C1300.75 32.6507 1301.22 32.24 1301.83 31.952C1302.45 31.664 1303.19 31.52 1304.05 31.52C1304.93 31.52 1305.67 31.664 1306.28 31.952C1306.9 32.24 1307.38 32.6507 1307.72 33.184C1308.06 33.7173 1308.25 34.3627 1308.29 35.12C1308.3 35.3227 1308.31 35.5627 1308.31 35.84C1308.31 36.1067 1308.3 36.3467 1308.29 36.56C1308.25 37.3067 1308.06 37.952 1307.73 38.496C1307.41 39.0293 1306.94 39.44 1306.33 39.728C1305.72 40.016 1304.96 40.16 1304.05 40.16ZM1304.05 38.208C1304.53 38.208 1304.88 38.064 1305.09 37.776C1305.32 37.488 1305.45 37.056 1305.48 36.48C1305.49 36.32 1305.49 36.1067 1305.49 35.84C1305.49 35.5733 1305.49 35.36 1305.48 35.2C1305.45 34.6347 1305.32 34.208 1305.09 33.92C1304.88 33.6213 1304.53 33.472 1304.05 33.472C1303.58 33.472 1303.24 33.6213 1303.01 33.92C1302.79 34.208 1302.67 34.6347 1302.65 35.2C1302.63 35.36 1302.63 35.5733 1302.63 35.84C1302.63 36.1067 1302.63 36.32 1302.65 36.48C1302.67 37.056 1302.79 37.488 1303.01 37.776C1303.24 38.064 1303.58 38.208 1304.05 38.208ZM1311.78 40C1311.67 40 1311.57 39.9627 1311.5 39.888C1311.42 39.8133 1311.38 39.7173 1311.38 39.6V32.08C1311.38 31.9627 1311.42 31.8667 1311.5 31.792C1311.57 31.7173 1311.67 31.68 1311.78 31.68H1313.62C1313.74 31.68 1313.84 31.7173 1313.91 31.792C1313.99 31.8667 1314.02 31.9627 1314.02 32.08V32.688C1314.3 32.3573 1314.66 32.08 1315.11 31.856C1315.56 31.632 1316.09 31.52 1316.7 31.52C1317.31 31.52 1317.86 31.6587 1318.33 31.936C1318.81 32.2133 1319.18 32.624 1319.45 33.168C1319.72 33.7013 1319.86 34.3573 1319.86 35.136V39.6C1319.86 39.7173 1319.82 39.8133 1319.74 39.888C1319.66 39.9627 1319.57 40 1319.46 40H1317.45C1317.34 40 1317.24 39.9627 1317.16 39.888C1317.08 39.8133 1317.05 39.7173 1317.05 39.6V35.232C1317.05 34.7307 1316.92 34.3467 1316.68 34.08C1316.44 33.8027 1316.09 33.664 1315.62 33.664C1315.19 33.664 1314.83 33.8027 1314.57 34.08C1314.31 34.3467 1314.18 34.7307 1314.18 35.232V39.6C1314.18 39.7173 1314.14 39.8133 1314.06 39.888C1313.98 39.9627 1313.89 40 1313.78 40H1311.78ZM1327.33 40C1326.64 40 1326.05 39.8933 1325.55 39.68C1325.06 39.456 1324.68 39.1147 1324.41 38.656C1324.15 38.1867 1324.01 37.584 1324.01 36.848V33.776H1322.77C1322.65 33.776 1322.55 33.7387 1322.46 33.664C1322.39 33.5893 1322.35 33.4933 1322.35 33.376V32.08C1322.35 31.9627 1322.39 31.8667 1322.46 31.792C1322.55 31.7173 1322.65 31.68 1322.77 31.68H1324.01V29.04C1324.01 28.9227 1324.05 28.8267 1324.13 28.752C1324.21 28.6773 1324.31 28.64 1324.41 28.64H1326.27C1326.39 28.64 1326.48 28.6773 1326.56 28.752C1326.63 28.8267 1326.67 28.9227 1326.67 29.04V31.68H1328.67C1328.79 31.68 1328.88 31.7173 1328.96 31.792C1329.03 31.8667 1329.07 31.9627 1329.07 32.08V33.376C1329.07 33.4933 1329.03 33.5893 1328.96 33.664C1328.88 33.7387 1328.79 33.776 1328.67 33.776H1326.67V36.624C1326.67 36.9867 1326.74 37.2747 1326.88 37.488C1327.02 37.7013 1327.25 37.808 1327.58 37.808H1328.81C1328.93 37.808 1329.03 37.8453 1329.1 37.92C1329.18 37.9947 1329.21 38.0907 1329.21 38.208V39.6C1329.21 39.7173 1329.18 39.8133 1329.1 39.888C1329.03 39.9627 1328.93 40 1328.81 40H1327.33ZM1334.54 40.16C1333.96 40.16 1333.44 40.0533 1332.98 39.84C1332.54 39.616 1332.18 39.3173 1331.91 38.944C1331.64 38.5707 1331.51 38.1493 1331.51 37.68C1331.51 36.9227 1331.82 36.3253 1332.44 35.888C1333.06 35.44 1333.88 35.136 1334.9 34.976L1336.9 34.672V34.448C1336.9 34.064 1336.82 33.7707 1336.66 33.568C1336.5 33.3653 1336.21 33.264 1335.78 33.264C1335.48 33.264 1335.24 33.3227 1335.05 33.44C1334.87 33.5573 1334.72 33.7173 1334.62 33.92C1334.52 34.0587 1334.39 34.128 1334.22 34.128H1332.42C1332.31 34.128 1332.22 34.096 1332.15 34.032C1332.09 33.9573 1332.06 33.872 1332.07 33.776C1332.07 33.584 1332.14 33.3653 1332.28 33.12C1332.43 32.864 1332.65 32.6133 1332.95 32.368C1333.25 32.1227 1333.63 31.92 1334.1 31.76C1334.57 31.6 1335.14 31.52 1335.8 31.52C1336.49 31.52 1337.08 31.6 1337.58 31.76C1338.07 31.92 1338.46 32.144 1338.76 32.432C1339.07 32.72 1339.3 33.0613 1339.45 33.456C1339.6 33.84 1339.67 34.2667 1339.67 34.736V39.6C1339.67 39.7173 1339.63 39.8133 1339.54 39.888C1339.47 39.9627 1339.38 40 1339.27 40H1337.42C1337.3 40 1337.2 39.9627 1337.13 39.888C1337.05 39.8133 1337.02 39.7173 1337.02 39.6V39.04C1336.88 39.2427 1336.69 39.4293 1336.46 39.6C1336.22 39.7707 1335.94 39.904 1335.62 40C1335.31 40.1067 1334.95 40.16 1334.54 40.16ZM1335.29 38.336C1335.6 38.336 1335.87 38.272 1336.12 38.144C1336.38 38.0053 1336.57 37.7973 1336.71 37.52C1336.86 37.232 1336.94 36.8747 1336.94 36.448V36.224L1335.58 36.464C1335.07 36.5493 1334.71 36.6827 1334.47 36.864C1334.25 37.0347 1334.14 37.2373 1334.14 37.472C1334.14 37.6533 1334.19 37.808 1334.3 37.936C1334.4 38.064 1334.54 38.1653 1334.71 38.24C1334.88 38.304 1335.07 38.336 1335.29 38.336ZM1346.8 40.16C1346.01 40.16 1345.31 40.016 1344.7 39.728C1344.1 39.44 1343.61 39.024 1343.25 38.48C1342.9 37.9253 1342.7 37.264 1342.67 36.496C1342.66 36.3253 1342.66 36.112 1342.66 35.856C1342.66 35.5893 1342.66 35.3707 1342.67 35.2C1342.7 34.4213 1342.9 33.76 1343.25 33.216C1343.6 32.6613 1344.08 32.24 1344.69 31.952C1345.31 31.664 1346.01 31.52 1346.8 31.52C1347.54 31.52 1348.17 31.6267 1348.69 31.84C1349.21 32.0427 1349.64 32.2987 1349.97 32.608C1350.3 32.9173 1350.54 33.2373 1350.7 33.568C1350.88 33.888 1350.97 34.1707 1350.98 34.416C1350.99 34.5227 1350.95 34.6187 1350.86 34.704C1350.78 34.7787 1350.68 34.816 1350.58 34.816H1348.54C1348.43 34.816 1348.34 34.7893 1348.27 34.736C1348.21 34.6827 1348.15 34.6027 1348.1 34.496C1347.97 34.1653 1347.8 33.9307 1347.6 33.792C1347.41 33.6533 1347.16 33.584 1346.85 33.584C1346.42 33.584 1346.09 33.7227 1345.86 34C1345.63 34.2773 1345.51 34.704 1345.49 35.28C1345.48 35.7067 1345.48 36.0853 1345.49 36.416C1345.51 37.0027 1345.63 37.4293 1345.86 37.696C1346.09 37.9627 1346.42 38.096 1346.85 38.096C1347.18 38.096 1347.44 38.0267 1347.63 37.888C1347.82 37.7493 1347.98 37.5147 1348.1 37.184C1348.15 37.0773 1348.21 36.9973 1348.27 36.944C1348.34 36.8907 1348.43 36.864 1348.54 36.864H1350.58C1350.68 36.864 1350.78 36.9067 1350.86 36.992C1350.95 37.0667 1350.99 37.1573 1350.98 37.264C1350.97 37.4453 1350.91 37.6587 1350.82 37.904C1350.72 38.1387 1350.57 38.3893 1350.37 38.656C1350.17 38.9227 1349.9 39.1733 1349.57 39.408C1349.25 39.632 1348.86 39.8133 1348.4 39.952C1347.94 40.0907 1347.41 40.16 1346.8 40.16ZM1358.17 40C1357.49 40 1356.9 39.8933 1356.39 39.68C1355.9 39.456 1355.53 39.1147 1355.26 38.656C1354.99 38.1867 1354.86 37.584 1354.86 36.848V33.776H1353.61C1353.49 33.776 1353.39 33.7387 1353.31 33.664C1353.23 33.5893 1353.19 33.4933 1353.19 33.376V32.08C1353.19 31.9627 1353.23 31.8667 1353.31 31.792C1353.39 31.7173 1353.49 31.68 1353.61 31.68H1354.86V29.04C1354.86 28.9227 1354.9 28.8267 1354.97 28.752C1355.06 28.6773 1355.15 28.64 1355.26 28.64H1357.11C1357.23 28.64 1357.33 28.6773 1357.4 28.752C1357.48 28.8267 1357.51 28.9227 1357.51 29.04V31.68H1359.51C1359.63 31.68 1359.73 31.7173 1359.8 31.792C1359.88 31.8667 1359.91 31.9627 1359.91 32.08V33.376C1359.91 33.4933 1359.88 33.5893 1359.8 33.664C1359.73 33.7387 1359.63 33.776 1359.51 33.776H1357.51V36.624C1357.51 36.9867 1357.58 37.2747 1357.72 37.488C1357.86 37.7013 1358.1 37.808 1358.43 37.808H1359.66C1359.78 37.808 1359.87 37.8453 1359.95 37.92C1360.02 37.9947 1360.06 38.0907 1360.06 38.208V39.6C1360.06 39.7173 1360.02 39.8133 1359.95 39.888C1359.87 39.9627 1359.78 40 1359.66 40H1358.17Z" fill="black"/>
<path d="M1114.54 19H1091.17C1090.52 19 1090 19.4948 1090 20.1071V48.8929C1090 49.5052 1090.52 50 1091.17 50H1114.54C1115.18 50 1115.71 49.5052 1115.71 48.8929V20.1071C1115.71 19.4948 1115.18 19 1114.54 19ZM1105.04 21.4911H1108.55V28.7532L1106.85 27.5804L1105.04 28.8051V21.4911ZM1113.08 47.5089H1092.63V21.4911H1102.85V31.7633C1102.85 31.8775 1102.89 31.9916 1102.96 32.085C1103.01 32.1444 1103.06 32.1949 1103.13 32.2335C1103.19 32.2721 1103.27 32.2981 1103.34 32.31C1103.42 32.3219 1103.49 32.3195 1103.57 32.3029C1103.64 32.2862 1103.71 32.2557 1103.78 32.2131L1106.84 30.1406L1109.81 32.1958C1109.91 32.265 1110.03 32.303 1110.15 32.303C1110.47 32.303 1110.74 32.0539 1110.74 31.7494V21.4911H1113.07V47.5089H1113.08Z" fill="black"/>
<path d="M1126.52 40C1126.4 40 1126.31 39.9627 1126.23 39.888C1126.16 39.8133 1126.12 39.7173 1126.12 39.6V29.2C1126.12 29.0827 1126.16 28.9867 1126.23 28.912C1126.31 28.8373 1126.4 28.8 1126.52 28.8H1131C1131.89 28.8 1132.65 28.9387 1133.3 29.216C1133.97 29.4827 1134.48 29.888 1134.84 30.432C1135.21 30.976 1135.4 31.664 1135.4 32.496C1135.4 33.3173 1135.21 33.9947 1134.84 34.528C1134.48 35.0613 1133.97 35.456 1133.3 35.712C1132.65 35.968 1131.89 36.096 1131 36.096H1129.1V39.6C1129.1 39.7173 1129.05 39.8133 1128.97 39.888C1128.89 39.9627 1128.8 40 1128.68 40H1126.52ZM1129.05 33.888H1130.92C1131.38 33.888 1131.74 33.7707 1132.01 33.536C1132.29 33.3013 1132.42 32.944 1132.42 32.464C1132.42 32.0587 1132.31 31.7173 1132.07 31.44C1131.84 31.1627 1131.45 31.024 1130.92 31.024H1129.05V33.888ZM1138.66 40C1138.54 40 1138.44 39.9627 1138.37 39.888C1138.29 39.8133 1138.26 39.7173 1138.26 39.6V32.08C1138.26 31.9733 1138.29 31.8827 1138.37 31.808C1138.44 31.7227 1138.54 31.68 1138.66 31.68H1140.5C1140.61 31.68 1140.71 31.7227 1140.78 31.808C1140.86 31.8827 1140.9 31.9733 1140.9 32.08V32.72C1141.18 32.3893 1141.53 32.1333 1141.92 31.952C1142.33 31.7707 1142.78 31.68 1143.28 31.68H1143.98C1144.09 31.68 1144.18 31.7173 1144.26 31.792C1144.34 31.8667 1144.38 31.9627 1144.38 32.08V33.728C1144.38 33.8347 1144.34 33.9307 1144.26 34.016C1144.18 34.0907 1144.09 34.128 1143.98 34.128H1142.43C1142 34.128 1141.65 34.2507 1141.41 34.496C1141.17 34.7307 1141.06 35.0667 1141.06 35.504V39.6C1141.06 39.7173 1141.01 39.8133 1140.93 39.888C1140.85 39.9627 1140.76 40 1140.64 40H1138.66ZM1150.9 40.16C1150 40.16 1149.24 40.016 1148.62 39.728C1148.02 39.44 1147.55 39.0293 1147.22 38.496C1146.9 37.952 1146.71 37.3067 1146.67 36.56C1146.66 36.3467 1146.66 36.1067 1146.66 35.84C1146.66 35.5627 1146.66 35.3227 1146.67 35.12C1146.71 34.3627 1146.91 33.7173 1147.25 33.184C1147.59 32.6507 1148.06 32.24 1148.67 31.952C1149.29 31.664 1150.03 31.52 1150.9 31.52C1151.77 31.52 1152.51 31.664 1153.12 31.952C1153.74 32.24 1154.22 32.6507 1154.56 33.184C1154.9 33.7173 1155.09 34.3627 1155.14 35.12C1155.15 35.3227 1155.15 35.5627 1155.15 35.84C1155.15 36.1067 1155.15 36.3467 1155.14 36.56C1155.09 37.3067 1154.91 37.952 1154.58 38.496C1154.26 39.0293 1153.79 39.44 1153.17 39.728C1152.56 40.016 1151.8 40.16 1150.9 40.16ZM1150.9 38.208C1151.38 38.208 1151.72 38.064 1151.94 37.776C1152.16 37.488 1152.29 37.056 1152.32 36.48C1152.33 36.32 1152.34 36.1067 1152.34 35.84C1152.34 35.5733 1152.33 35.36 1152.32 35.2C1152.29 34.6347 1152.16 34.208 1151.94 33.92C1151.72 33.6213 1151.38 33.472 1150.9 33.472C1150.43 33.472 1150.08 33.6213 1149.86 33.92C1149.63 34.208 1149.51 34.6347 1149.49 35.2C1149.48 35.36 1149.47 35.5733 1149.47 35.84C1149.47 36.1067 1149.48 36.32 1149.49 36.48C1149.51 37.056 1149.63 37.488 1149.86 37.776C1150.08 38.064 1150.43 38.208 1150.9 38.208ZM1161.33 40.16C1160.82 40.16 1160.35 40.08 1159.94 39.92C1159.53 39.7493 1159.18 39.504 1158.88 39.184C1158.59 38.8533 1158.37 38.4587 1158.21 38C1158.05 37.5307 1157.96 36.9973 1157.94 36.4C1157.93 36.1867 1157.92 36 1157.92 35.84C1157.92 35.6693 1157.93 35.4827 1157.94 35.28C1157.96 34.704 1158.05 34.1867 1158.21 33.728C1158.37 33.2693 1158.59 32.8747 1158.88 32.544C1159.17 32.2133 1159.52 31.9627 1159.94 31.792C1160.35 31.6107 1160.82 31.52 1161.33 31.52C1161.86 31.52 1162.32 31.6107 1162.71 31.792C1163.09 31.9627 1163.41 32.1867 1163.68 32.464V29.04C1163.68 28.9227 1163.72 28.8267 1163.79 28.752C1163.87 28.6773 1163.96 28.64 1164.08 28.64H1166.03C1166.14 28.64 1166.23 28.6773 1166.31 28.752C1166.39 28.8267 1166.43 28.9227 1166.43 29.04V39.6C1166.43 39.7173 1166.39 39.8133 1166.31 39.888C1166.23 39.9627 1166.14 40 1166.03 40H1164.23C1164.11 40 1164.01 39.9627 1163.94 39.888C1163.86 39.8133 1163.83 39.7173 1163.83 39.6V39.088C1163.57 39.3973 1163.24 39.6533 1162.83 39.856C1162.43 40.0587 1161.93 40.16 1161.33 40.16ZM1162.19 38.016C1162.56 38.016 1162.84 37.9413 1163.04 37.792C1163.25 37.632 1163.41 37.4293 1163.51 37.184C1163.61 36.9387 1163.67 36.672 1163.68 36.384C1163.69 36.1707 1163.7 35.968 1163.7 35.776C1163.7 35.584 1163.69 35.3867 1163.68 35.184C1163.67 34.9173 1163.61 34.672 1163.51 34.448C1163.4 34.2133 1163.24 34.0267 1163.03 33.888C1162.81 33.7387 1162.53 33.664 1162.19 33.664C1161.84 33.664 1161.56 33.7387 1161.35 33.888C1161.14 34.0373 1161 34.24 1160.91 34.496C1160.83 34.752 1160.77 35.0347 1160.75 35.344C1160.72 35.6747 1160.72 36.0053 1160.75 36.336C1160.77 36.6453 1160.83 36.928 1160.91 37.184C1161 37.44 1161.14 37.6427 1161.35 37.792C1161.56 37.9413 1161.84 38.016 1162.19 38.016ZM1172.88 40.16C1172.27 40.16 1171.72 40.0213 1171.24 39.744C1170.77 39.4667 1170.41 39.0613 1170.14 38.528C1169.87 37.984 1169.74 37.3227 1169.74 36.544V32.08C1169.74 31.9627 1169.78 31.8667 1169.85 31.792C1169.93 31.7173 1170.02 31.68 1170.14 31.68H1172.14C1172.26 31.68 1172.35 31.7173 1172.43 31.792C1172.5 31.8667 1172.54 31.9627 1172.54 32.08V36.448C1172.54 37.4933 1173.01 38.016 1173.95 38.016C1174.38 38.016 1174.73 37.8827 1174.99 37.616C1175.25 37.3387 1175.39 36.9493 1175.39 36.448V32.08C1175.39 31.9627 1175.42 31.8667 1175.5 31.792C1175.57 31.7173 1175.67 31.68 1175.79 31.68H1177.79C1177.9 31.68 1178 31.7173 1178.08 31.792C1178.15 31.8667 1178.19 31.9627 1178.19 32.08V39.6C1178.19 39.7173 1178.15 39.8133 1178.08 39.888C1178 39.9627 1177.9 40 1177.79 40H1175.93C1175.82 40 1175.73 39.9627 1175.64 39.888C1175.57 39.8133 1175.53 39.7173 1175.53 39.6V38.992C1175.25 39.376 1174.89 39.6693 1174.44 39.872C1174.01 40.064 1173.48 40.16 1172.88 40.16ZM1181.97 40C1181.85 40 1181.76 39.9627 1181.68 39.888C1181.61 39.8133 1181.57 39.7173 1181.57 39.6V32.08C1181.57 31.9627 1181.61 31.8667 1181.68 31.792C1181.76 31.7173 1181.85 31.68 1181.97 31.68H1183.86C1183.96 31.68 1184.05 31.7173 1184.13 31.792C1184.21 31.8667 1184.26 31.9627 1184.26 32.08V39.6C1184.26 39.7173 1184.21 39.8133 1184.13 39.888C1184.05 39.9627 1183.96 40 1183.86 40H1181.97ZM1181.95 30.48C1181.84 30.48 1181.74 30.4427 1181.67 30.368C1181.59 30.2933 1181.55 30.1973 1181.55 30.08V28.656C1181.55 28.5387 1181.59 28.4427 1181.67 28.368C1181.74 28.2827 1181.84 28.24 1181.95 28.24H1183.86C1183.97 28.24 1184.07 28.2827 1184.15 28.368C1184.23 28.4427 1184.27 28.5387 1184.27 28.656V30.08C1184.27 30.1973 1184.23 30.2933 1184.15 30.368C1184.07 30.4427 1183.97 30.48 1183.86 30.48H1181.95ZM1191.89 40C1191.2 40 1190.61 39.8933 1190.11 39.68C1189.62 39.456 1189.24 39.1147 1188.98 38.656C1188.71 38.1867 1188.58 37.584 1188.58 36.848V33.776H1187.33C1187.21 33.776 1187.11 33.7387 1187.02 33.664C1186.95 33.5893 1186.91 33.4933 1186.91 33.376V32.08C1186.91 31.9627 1186.95 31.8667 1187.02 31.792C1187.11 31.7173 1187.21 31.68 1187.33 31.68H1188.58V29.04C1188.58 28.9227 1188.61 28.8267 1188.69 28.752C1188.77 28.6773 1188.87 28.64 1188.98 28.64H1190.83C1190.95 28.64 1191.04 28.6773 1191.12 28.752C1191.19 28.8267 1191.23 28.9227 1191.23 29.04V31.68H1193.23C1193.35 31.68 1193.44 31.7173 1193.52 31.792C1193.59 31.8667 1193.63 31.9627 1193.63 32.08V33.376C1193.63 33.4933 1193.59 33.5893 1193.52 33.664C1193.44 33.7387 1193.35 33.776 1193.23 33.776H1191.23V36.624C1191.23 36.9867 1191.3 37.2747 1191.44 37.488C1191.58 37.7013 1191.81 37.808 1192.14 37.808H1193.38C1193.49 37.808 1193.59 37.8453 1193.66 37.92C1193.74 37.9947 1193.78 38.0907 1193.78 38.208V39.6C1193.78 39.7173 1193.74 39.8133 1193.66 39.888C1193.59 39.9627 1193.49 40 1193.38 40H1191.89Z" fill="black"/>
<path d="M978.228 34.2511L963.766 20.2691L962.797 19.3314C962.576 19.1191 962.277 19 961.966 19C961.654 19 961.356 19.1191 961.135 19.3314L945.704 34.2511C945.477 34.4692 945.299 34.7289 945.178 35.015C945.057 35.301 944.997 35.6076 945 35.9165C945.015 37.1909 946.112 38.2083 947.429 38.2083H949.02V50H974.912V38.2083H976.536C977.176 38.2083 977.778 37.9657 978.231 37.5276C978.454 37.3126 978.631 37.0569 978.751 36.7754C978.871 36.4939 978.932 36.1921 978.931 35.8876C978.931 35.2721 978.68 34.6892 978.228 34.2511V34.2511ZM964.062 47.3933H959.87V40.0076H964.062V47.3933ZM972.217 35.6016V47.3933H966.457V39.1387C966.457 38.3386 965.787 37.6905 964.96 37.6905H958.972C958.144 37.6905 957.474 38.3386 957.474 39.1387V47.3933H951.715V35.6016H948.122L961.969 22.2168L962.834 23.0532L975.814 35.6016H972.217Z" fill="black"/>
<path d="M989.705 40C989.588 40 989.492 39.9627 989.417 39.888C989.343 39.8133 989.305 39.7173 989.305 39.6V29.2C989.305 29.0827 989.343 28.9867 989.417 28.912C989.492 28.8373 989.588 28.8 989.705 28.8H991.769C991.887 28.8 991.983 28.8373 992.057 28.912C992.132 28.9867 992.169 29.0827 992.169 29.2V33.056H996.121V29.2C996.121 29.0827 996.159 28.9867 996.233 28.912C996.308 28.8373 996.404 28.8 996.521 28.8H998.585C998.703 28.8 998.799 28.8373 998.873 28.912C998.948 28.9867 998.985 29.0827 998.985 29.2V39.6C998.985 39.7173 998.948 39.8133 998.873 39.888C998.799 39.9627 998.703 40 998.585 40H996.521C996.404 40 996.308 39.9627 996.233 39.888C996.159 39.8133 996.121 39.7173 996.121 39.6V35.616H992.169V39.6C992.169 39.7173 992.132 39.8133 992.057 39.888C991.983 39.9627 991.887 40 991.769 40H989.705ZM1006.49 40.16C1005.59 40.16 1004.83 40.016 1004.22 39.728C1003.61 39.44 1003.14 39.0293 1002.81 38.496C1002.49 37.952 1002.31 37.3067 1002.26 36.56C1002.25 36.3467 1002.25 36.1067 1002.25 35.84C1002.25 35.5627 1002.25 35.3227 1002.26 35.12C1002.31 34.3627 1002.5 33.7173 1002.84 33.184C1003.18 32.6507 1003.66 32.24 1004.26 31.952C1004.88 31.664 1005.62 31.52 1006.49 31.52C1007.36 31.52 1008.1 31.664 1008.71 31.952C1009.33 32.24 1009.81 32.6507 1010.15 33.184C1010.49 33.7173 1010.68 34.3627 1010.73 35.12C1010.74 35.3227 1010.74 35.5627 1010.74 35.84C1010.74 36.1067 1010.74 36.3467 1010.73 36.56C1010.68 37.3067 1010.5 37.952 1010.17 38.496C1009.85 39.0293 1009.38 39.44 1008.76 39.728C1008.15 40.016 1007.39 40.16 1006.49 40.16ZM1006.49 38.208C1006.97 38.208 1007.31 38.064 1007.53 37.776C1007.75 37.488 1007.88 37.056 1007.91 36.48C1007.92 36.32 1007.93 36.1067 1007.93 35.84C1007.93 35.5733 1007.92 35.36 1007.91 35.2C1007.88 34.6347 1007.75 34.208 1007.53 33.92C1007.31 33.6213 1006.97 33.472 1006.49 33.472C1006.02 33.472 1005.67 33.6213 1005.45 33.92C1005.22 34.208 1005.1 34.6347 1005.08 35.2C1005.07 35.36 1005.06 35.5733 1005.06 35.84C1005.06 36.1067 1005.07 36.32 1005.08 36.48C1005.1 37.056 1005.22 37.488 1005.45 37.776C1005.67 38.064 1006.02 38.208 1006.49 38.208ZM1014.22 40C1014.1 40 1014 39.9627 1013.93 39.888C1013.85 39.8133 1013.82 39.7173 1013.82 39.6V32.08C1013.82 31.9627 1013.85 31.8667 1013.93 31.792C1014 31.7173 1014.1 31.68 1014.22 31.68H1015.96C1016.08 31.68 1016.17 31.7173 1016.25 31.792C1016.32 31.8667 1016.36 31.9627 1016.36 32.08V32.624C1016.57 32.336 1016.87 32.0853 1017.26 31.872C1017.64 31.648 1018.09 31.5307 1018.62 31.52C1019.84 31.4987 1020.69 31.9627 1021.14 32.912C1021.39 32.5067 1021.74 32.176 1022.2 31.92C1022.66 31.6533 1023.16 31.52 1023.7 31.52C1024.26 31.52 1024.76 31.648 1025.19 31.904C1025.64 32.1493 1026 32.5333 1026.26 33.056C1026.53 33.568 1026.66 34.2347 1026.66 35.056V39.6C1026.66 39.7173 1026.62 39.8133 1026.54 39.888C1026.46 39.9627 1026.37 40 1026.26 40H1024.41C1024.29 40 1024.19 39.9627 1024.1 39.888C1024.03 39.8133 1023.99 39.7173 1023.99 39.6V35.168C1023.99 34.7947 1023.94 34.5013 1023.83 34.288C1023.73 34.064 1023.58 33.904 1023.4 33.808C1023.22 33.712 1023.01 33.664 1022.78 33.664C1022.58 33.664 1022.39 33.712 1022.2 33.808C1022.02 33.904 1021.87 34.064 1021.75 34.288C1021.65 34.5013 1021.59 34.7947 1021.59 35.168V39.6C1021.59 39.7173 1021.56 39.8133 1021.48 39.888C1021.41 39.9627 1021.31 40 1021.19 40H1019.34C1019.22 40 1019.12 39.9627 1019.05 39.888C1018.97 39.8133 1018.94 39.7173 1018.94 39.6V35.168C1018.94 34.7947 1018.88 34.5013 1018.76 34.288C1018.64 34.064 1018.49 33.904 1018.31 33.808C1018.13 33.712 1017.93 33.664 1017.7 33.664C1017.51 33.664 1017.32 33.712 1017.13 33.808C1016.95 33.904 1016.8 34.064 1016.68 34.288C1016.57 34.5013 1016.52 34.7893 1016.52 35.152V39.6C1016.52 39.7173 1016.48 39.8133 1016.39 39.888C1016.32 39.9627 1016.22 40 1016.1 40H1014.22ZM1033.8 40.16C1032.54 40.16 1031.54 39.8187 1030.79 39.136C1030.04 38.4533 1029.65 37.44 1029.62 36.096C1029.62 36.0213 1029.62 35.9253 1029.62 35.808C1029.62 35.6907 1029.62 35.6 1029.62 35.536C1029.65 34.6933 1029.84 33.9733 1030.18 33.376C1030.53 32.768 1031.01 32.3093 1031.62 32C1032.24 31.68 1032.96 31.52 1033.78 31.52C1034.72 31.52 1035.49 31.7067 1036.1 32.08C1036.72 32.4533 1037.18 32.96 1037.49 33.6C1037.8 34.24 1037.96 34.9707 1037.96 35.792V36.176C1037.96 36.2933 1037.91 36.3893 1037.83 36.464C1037.75 36.5387 1037.66 36.576 1037.56 36.576H1032.44C1032.44 36.5867 1032.44 36.6027 1032.44 36.624C1032.44 36.6453 1032.44 36.6667 1032.44 36.688C1032.45 36.9973 1032.5 37.28 1032.6 37.536C1032.69 37.792 1032.84 37.9947 1033.05 38.144C1033.25 38.2933 1033.49 38.368 1033.78 38.368C1033.99 38.368 1034.17 38.336 1034.31 38.272C1034.46 38.1973 1034.58 38.1173 1034.68 38.032C1034.77 37.936 1034.85 37.856 1034.9 37.792C1035 37.6853 1035.07 37.6213 1035.13 37.6C1035.19 37.568 1035.29 37.552 1035.41 37.552H1037.4C1037.5 37.552 1037.59 37.584 1037.65 37.648C1037.73 37.7013 1037.76 37.7813 1037.75 37.888C1037.74 38.0693 1037.65 38.288 1037.48 38.544C1037.31 38.8 1037.06 39.056 1036.73 39.312C1036.41 39.5573 1036 39.76 1035.51 39.92C1035.02 40.08 1034.45 40.16 1033.8 40.16ZM1032.44 34.992H1035.14V34.96C1035.14 34.6187 1035.09 34.32 1034.98 34.064C1034.89 33.808 1034.73 33.6107 1034.52 33.472C1034.31 33.3333 1034.07 33.264 1033.78 33.264C1033.49 33.264 1033.25 33.3333 1033.05 33.472C1032.85 33.6107 1032.7 33.808 1032.6 34.064C1032.49 34.32 1032.44 34.6187 1032.44 34.96V34.992Z" fill="black"/>
<path d="M106.399 41.2257H96.6006V75.1378H106.399V41.2257Z" fill="#1D1D1B"/>
<path d="M130.992 5H117.518V64.1002H130.992V5Z" fill="#1D1D1B"/>
<path d="M85.4743 5H72V64.1002H85.4743V5Z" fill="#1D1D1B"/>
<path d="M72 27.8052V41.3024L131 41.3024V27.8052L72 27.8052Z" fill="#1D1D1B"/>
</g>
<defs>
<clipPath id="clip0_1027_5668">
<rect width="1440" height="70" fill="white"/>
</clipPath>
</defs>
</svg>
