<svg width="34" height="31" viewBox="0 0 34 31" fill="none" xmlns="http://www.w3.org/2000/svg">
<path d="M33.2276 15.2511L18.7659 1.26905L17.7965 0.33136C17.5757 0.119118 17.277 0 16.9657 0C16.6544 0 16.3557 0.119118 16.1348 0.33136L0.703777 15.2511C0.477462 15.4692 0.298601 15.7289 0.177753 16.015C0.0569043 16.301 -0.00348303 16.6076 0.000155132 16.9165C0.0151258 18.1909 1.11173 19.2083 2.42915 19.2083H4.01978V31H29.9116V19.2083H31.5359C32.1759 19.2083 32.7785 18.9657 33.2313 18.5276C33.4543 18.3126 33.631 18.0569 33.7511 17.7754C33.8713 17.4939 33.9325 17.1921 33.9312 16.8876C33.9312 16.2721 33.6804 15.6892 33.2276 15.2511V15.2511ZM19.0616 28.3933H14.8698V21.0076H19.0616V28.3933ZM27.2168 16.6016V28.3933H21.4569V20.1387C21.4569 19.3386 20.7869 18.6905 19.9598 18.6905H13.9715C13.1444 18.6905 12.4745 19.3386 12.4745 20.1387V28.3933H6.7145V16.6016H3.12154L16.9694 3.21684L17.834 4.05316L30.8136 16.6016H27.2168Z" fill="black"/>
</svg>
