<svg width="26" height="31" viewBox="0 0 26 31" fill="none" xmlns="http://www.w3.org/2000/svg">
<path d="M24.537 0H1.16843C0.522142 0 0 0.494754 0 1.10714V29.8929C0 30.5052 0.522142 31 1.16843 31H24.537C25.1833 31 25.7055 30.5052 25.7055 29.8929V1.10714C25.7055 0.494754 25.1833 0 24.537 0ZM15.0435 2.49107H18.5488V9.75324L16.851 8.58036L15.0435 9.80513V2.49107ZM23.0765 28.5089H2.62897V2.49107H12.8527V12.7633C12.8527 12.8775 12.8892 12.9916 12.9623 13.085C13.0066 13.1444 13.0629 13.1949 13.128 13.2335C13.193 13.2721 13.2655 13.2981 13.3412 13.31C13.4169 13.3219 13.4944 13.3195 13.5691 13.3029C13.6438 13.2862 13.7143 13.2557 13.7765 13.2131L16.8363 11.1406L19.8085 13.1958C19.9071 13.265 20.0276 13.303 20.1518 13.303C20.4731 13.303 20.736 13.0539 20.736 12.7494V2.49107H23.0728V28.5089H23.0765Z" fill="black"/>
</svg>
